solid cap
facet normal 0.0 0.0 -1.0
  outer loop
    vertex -10.785304063281819 5.0401750983411775 -15.999999999999998
    vertex -11.424999999999999 2.8199664825478975e-15 -15.999999999999998
    vertex -11.926742087472096 3.6299074683229726 -15.999999999999998
  endloop
endfacet
facet normal 0.0 0.0 -1.0
  outer loop
    vertex -11.424999999999999 2.8199664825478975e-15 -15.999999999999998
    vertex -10.785304063281819 5.0401750983411775 -15.999999999999998
    vertex -11.240147607618194 1.4040933196811767 -15.999999999999998
  endloop
endfacet
facet normal 0.0 0.0 -1.0
  outer loop
    vertex -11.240147607618194 1.4040933196811767 -15.999999999999998
    vertex -10.785304063281819 5.0401750983411775 -15.999999999999998
    vertex -10.698187815530579 2.7124999999999995 -15.999999999999998
  endloop
endfacet
facet normal 0.0 0.0 -1.0
  outer loop
    vertex -10.698187815530579 2.7124999999999995 -15.999999999999998
    vertex -10.785304063281819 5.0401750983411775 -15.999999999999998
    vertex -9.31775547526776 6.1069631246905995 -15.999999999999998
  endloop
endfacet
facet normal 0.0 0.0 -1.0
  outer loop
    vertex -10.698187815530579 2.7124999999999995 -15.999999999999998
    vertex -9.31775547526776 6.1069631246905995 -15.999999999999998
    vertex -9.83605428793702 3.8360542879370185 -15.999999999999998
  endloop
endfacet
facet normal 0.0 0.0 -1.0
  outer loop
    vertex -9.83605428793702 3.8360542879370185 -15.999999999999998
    vertex -9.31775547526776 6.1069631246905995 -15.999999999999998
    vertex -8.712500000000002 4.698187815530578 -15.999999999999998
  endloop
endfacet
facet normal 0.0 0.0 -1.0
  outer loop
    vertex -8.712500000000002 4.698187815530578 -15.999999999999998
    vertex -9.31775547526776 6.1069631246905995 -15.999999999999998
    vertex -7.624107334464362 6.7575717063261 -15.999999999999998
  endloop
endfacet
facet normal 0.0 0.0 -1.0
  outer loop
    vertex -8.712500000000002 4.698187815530578 -15.999999999999998
    vertex -7.624107334464362 6.7575717063261 -15.999999999999998
    vertex -7.40409331968118 5.240147607618195 -15.999999999999998
  endloop
endfacet
facet normal 0.0 0.0 -1.0
  outer loop
    vertex -7.40409331968118 5.240147607618195 -15.999999999999998
    vertex -7.624107334464362 6.7575717063261 -15.999999999999998
    vertex -5.819778962781491 6.9476629435907356 -15.999999999999998
  endloop
endfacet
facet normal 0.0 0.0 -1.0
  outer loop
    vertex -7.40409331968118 5.240147607618195 -15.999999999999998
    vertex -5.819778962781491 6.9476629435907356 -15.999999999999998
    vertex -6.000000000000006 5.425 -15.999999999999998
  endloop
endfacet
facet normal 0.0 0.0 -1.0
  outer loop
    vertex -6.000000000000006 5.425 -15.999999999999998
    vertex -5.819778962781491 6.9476629435907356 -15.999999999999998
    vertex -4.595906680318829 5.240147607618198 -15.999999999999998
  endloop
endfacet
facet normal 0.0 0.0 -1.0
  outer loop
    vertex -4.595906680318829 5.240147607618198 -15.999999999999998
    vertex -5.819778962781491 6.9476629435907356 -15.999999999999998
    vertex -4.027732356955715 6.664282432805542 -15.999999999999998
  endloop
endfacet
facet normal 0.0 0.0 -1.0
  outer loop
    vertex -4.595906680318829 5.240147607618198 -15.999999999999998
    vertex -4.027732356955715 6.664282432805542 -15.999999999999998
    vertex -3.2875000000000036 4.6981878155305825 -15.999999999999998
  endloop
endfacet
facet normal 0.0 0.0 -1.0
  outer loop
    vertex -3.2875000000000036 4.6981878155305825 -15.999999999999998
    vertex -4.027732356955715 6.664282432805542 -15.999999999999998
    vertex -2.370092531677022 5.926742087472094 -15.999999999999998
  endloop
endfacet
facet normal 0.0 0.0 -1.0
  outer loop
    vertex -3.2875000000000036 4.6981878155305825 -15.999999999999998
    vertex -2.370092531677022 5.926742087472094 -15.999999999999998
    vertex -2.163945712062982 3.836054287937024 -15.999999999999998
  endloop
endfacet
facet normal 0.0 0.0 -1.0
  outer loop
    vertex -2.163945712062982 3.836054287937024 -15.999999999999998
    vertex -2.370092531677022 5.926742087472094 -15.999999999999998
    vertex -0.959824901658819 4.785304063281816 -15.999999999999998
  endloop
endfacet
facet normal 0.0 0.0 -1.0
  outer loop
    vertex -2.163945712062982 3.836054287937024 -15.999999999999998
    vertex -0.959824901658819 4.785304063281816 -15.999999999999998
    vertex -1.301812184469422 2.7125000000000035 -15.999999999999998
  endloop
endfacet
facet normal 0.0 0.0 -1.0
  outer loop
    vertex -1.301812184469422 2.7125000000000035 -15.999999999999998
    vertex -0.959824901658819 4.785304063281816 -15.999999999999998
    vertex -0.7598523923818038 1.404093319681178 -15.999999999999998
  endloop
endfacet
facet normal 0.0 0.0 -1.0
  outer loop
    vertex -0.7598523923818038 1.404093319681178 -15.999999999999998
    vertex -0.959824901658819 4.785304063281816 -15.999999999999998
    vertex 0.1069631246906037 3.317755475267757 -15.999999999999998
  endloop
endfacet
facet normal 0.0 0.0 -1.0
  outer loop
    vertex -0.7598523923818038 1.404093319681178 -15.999999999999998
    vertex 0.1069631246906037 3.317755475267757 -15.999999999999998
    vertex -0.574999999999999 2.8199664825478975e-15 -15.999999999999998
  endloop
endfacet
facet normal 0.0 0.0 -1.0
  outer loop
    vertex -0.574999999999999 2.8199664825478975e-15 -15.999999999999998
    vertex 0.1069631246906037 3.317755475267757 -15.999999999999998
    vertex -0.07325791252790488 -3.6299074683229766 -15.999999999999998
  endloop
endfacet
facet normal 0.0 0.0 -1.0
  outer loop
    vertex -0.07325791252790488 -3.6299074683229766 -15.999999999999998
    vertex 0.1069631246906037 3.317755475267757 -15.999999999999998
    vertex 0.6642824328055431 -1.972267643044283 -15.999999999999998
  endloop
endfacet
facet normal 0.0 0.0 -1.0
  outer loop
    vertex 0.6642824328055431 -1.972267643044283 -15.999999999999998
    vertex 0.1069631246906037 3.317755475267757 -15.999999999999998
    vertex 0.7575717063261013 1.6241073344643606 -15.999999999999998
  endloop
endfacet
facet normal 0.0 0.0 -1.0
  outer loop
    vertex 0.6642824328055431 -1.972267643044283 -15.999999999999998
    vertex 0.7575717063261013 1.6241073344643606 -15.999999999999998
    vertex 0.9476629435907366 -0.18022103721850857 -15.999999999999998
  endloop
endfacet
facet normal 0.0 0.0 -1.0
  outer loop
    vertex -12.66428243280554 1.9722676430442778 -15.999999999999998
    vertex -12.757571706326102 -1.6241073344643628 -15.999999999999998
    vertex -12.947662943590734 0.18022103721850435 -15.999999999999998
  endloop
endfacet
facet normal 0.0 0.0 -1.0
  outer loop
    vertex -12.757571706326102 -1.6241073344643628 -15.999999999999998
    vertex -12.66428243280554 1.9722676430442778 -15.999999999999998
    vertex -12.106963124690601 -3.317755475267757 -15.999999999999998
  endloop
endfacet
facet normal 0.0 0.0 -1.0
  outer loop
    vertex -12.106963124690601 -3.317755475267757 -15.999999999999998
    vertex -12.66428243280554 1.9722676430442778 -15.999999999999998
    vertex -11.926742087472096 3.6299074683229726 -15.999999999999998
  endloop
endfacet
facet normal 0.0 0.0 -1.0
  outer loop
    vertex -12.106963124690601 -3.317755475267757 -15.999999999999998
    vertex -11.926742087472096 3.6299074683229726 -15.999999999999998
    vertex -11.04017509834118 -4.785304063281816 -15.999999999999998
  endloop
endfacet
facet normal 0.0 0.0 -1.0
  outer loop
    vertex -11.04017509834118 -4.785304063281816 -15.999999999999998
    vertex -11.926742087472096 3.6299074683229726 -15.999999999999998
    vertex -11.424999999999999 2.8199664825478975e-15 -15.999999999999998
  endloop
endfacet
facet normal 0.0 0.0 -1.0
  outer loop
    vertex -11.04017509834118 -4.785304063281816 -15.999999999999998
    vertex -11.424999999999999 2.8199664825478975e-15 -15.999999999999998
    vertex -11.240147607618196 -1.4040933196811711 -15.999999999999998
  endloop
endfacet
facet normal 0.0 0.0 -1.0
  outer loop
    vertex -11.04017509834118 -4.785304063281816 -15.999999999999998
    vertex -11.240147607618196 -1.4040933196811711 -15.999999999999998
    vertex -10.69818781553058 -2.712499999999995 -15.999999999999998
  endloop
endfacet
facet normal 0.0 0.0 -1.0
  outer loop
    vertex -11.04017509834118 -4.785304063281816 -15.999999999999998
    vertex -10.69818781553058 -2.712499999999995 -15.999999999999998
    vertex -9.62990746832298 -5.926742087472091 -15.999999999999998
  endloop
endfacet
facet normal 0.0 0.0 -1.0
  outer loop
    vertex -9.62990746832298 -5.926742087472091 -15.999999999999998
    vertex -10.69818781553058 -2.712499999999995 -15.999999999999998
    vertex -9.836054287937026 -3.836054287937015 -15.999999999999998
  endloop
endfacet
facet normal 0.0 0.0 -1.0
  outer loop
    vertex -9.62990746832298 -5.926742087472091 -15.999999999999998
    vertex -9.836054287937026 -3.836054287937015 -15.999999999999998
    vertex -8.712499999999997 -4.698187815530582 -15.999999999999998
  endloop
endfacet
facet normal 0.0 0.0 -1.0
  outer loop
    vertex -9.62990746832298 -5.926742087472091 -15.999999999999998
    vertex -8.712499999999997 -4.698187815530582 -15.999999999999998
    vertex -7.972267643044289 -6.664282432805539 -15.999999999999998
  endloop
endfacet
facet normal 0.0 0.0 -1.0
  outer loop
    vertex -7.972267643044289 -6.664282432805539 -15.999999999999998
    vertex -8.712499999999997 -4.698187815530582 -15.999999999999998
    vertex -7.404093319681172 -5.240147607618196 -15.999999999999998
  endloop
endfacet
facet normal 0.0 0.0 -1.0
  outer loop
    vertex -7.972267643044289 -6.664282432805539 -15.999999999999998
    vertex -7.404093319681172 -5.240147607618196 -15.999999999999998
    vertex -6.180221037218518 -6.947662943590734 -15.999999999999998
  endloop
endfacet
facet normal 0.0 0.0 -1.0
  outer loop
    vertex -6.180221037218518 -6.947662943590734 -15.999999999999998
    vertex -7.404093319681172 -5.240147607618196 -15.999999999999998
    vertex -5.9999999999999964 -5.425000000000001 -15.999999999999998
  endloop
endfacet
facet normal 0.0 0.0 -1.0
  outer loop
    vertex -6.180221037218518 -6.947662943590734 -15.999999999999998
    vertex -5.9999999999999964 -5.425000000000001 -15.999999999999998
    vertex -4.375892665535648 -6.757571706326105 -15.999999999999998
  endloop
endfacet
facet normal 0.0 0.0 -1.0
  outer loop
    vertex -4.375892665535648 -6.757571706326105 -15.999999999999998
    vertex -5.9999999999999964 -5.425000000000001 -15.999999999999998
    vertex -4.595906680318821 -5.240147607618195 -15.999999999999998
  endloop
endfacet
facet normal 0.0 0.0 -1.0
  outer loop
    vertex -4.375892665535648 -6.757571706326105 -15.999999999999998
    vertex -4.595906680318821 -5.240147607618195 -15.999999999999998
    vertex -3.287499999999997 -4.698187815530578 -15.999999999999998
  endloop
endfacet
facet normal 0.0 0.0 -1.0
  outer loop
    vertex -4.375892665535648 -6.757571706326105 -15.999999999999998
    vertex -3.287499999999997 -4.698187815530578 -15.999999999999998
    vertex -2.682244524732253 -6.106963124690609 -15.999999999999998
  endloop
endfacet
facet normal 0.0 0.0 -1.0
  outer loop
    vertex -2.682244524732253 -6.106963124690609 -15.999999999999998
    vertex -3.287499999999997 -4.698187815530578 -15.999999999999998
    vertex -2.163945712062978 -3.83605428793702 -15.999999999999998
  endloop
endfacet
facet normal 0.0 0.0 -1.0
  outer loop
    vertex -2.682244524732253 -6.106963124690609 -15.999999999999998
    vertex -2.163945712062978 -3.83605428793702 -15.999999999999998
    vertex -1.2146959367181809 -5.040175098341178 -15.999999999999998
  endloop
endfacet
facet normal 0.0 0.0 -1.0
  outer loop
    vertex -1.2146959367181809 -5.040175098341178 -15.999999999999998
    vertex -2.163945712062978 -3.83605428793702 -15.999999999999998
    vertex -1.301812184469419 -2.7124999999999995 -15.999999999999998
  endloop
endfacet
facet normal 0.0 0.0 -1.0
  outer loop
    vertex -1.2146959367181809 -5.040175098341178 -15.999999999999998
    vertex -1.301812184469419 -2.7124999999999995 -15.999999999999998
    vertex -0.7598523923818038 -1.4040933196811731 -15.999999999999998
  endloop
endfacet
facet normal 0.0 0.0 -1.0
  outer loop
    vertex -1.2146959367181809 -5.040175098341178 -15.999999999999998
    vertex -0.7598523923818038 -1.4040933196811731 -15.999999999999998
    vertex -0.07325791252790488 -3.6299074683229766 -15.999999999999998
  endloop
endfacet
facet normal 0.0 0.0 -1.0
  outer loop
    vertex -0.07325791252790488 -3.6299074683229766 -15.999999999999998
    vertex -0.7598523923818038 -1.4040933196811731 -15.999999999999998
    vertex -0.574999999999999 2.8199664825478975e-15 -15.999999999999998
  endloop
endfacet
facet normal 0.0 0.0 -1.0
  outer loop
    vertex -12.66428243280554 1.9722676430442778 0.0
    vertex -12.757571706326098 -1.6241073344643622 0.0
    vertex -12.947662943590734 0.18022103721850577 0.0
  endloop
endfacet
facet normal 0.0 0.0 -1.0
  outer loop
    vertex -12.757571706326098 -1.6241073344643622 0.0
    vertex -12.66428243280554 1.9722676430442778 0.0
    vertex -12.106963124690601 -3.3177554752677567 0.0
  endloop
endfacet
facet normal 0.0 0.0 -1.0
  outer loop
    vertex -12.106963124690601 -3.3177554752677567 0.0
    vertex -12.66428243280554 1.9722676430442778 0.0
    vertex -11.926742087472094 3.629907468322974 0.0
  endloop
endfacet
facet normal 0.0 0.0 -1.0
  outer loop
    vertex -12.106963124690601 -3.3177554752677567 0.0
    vertex -11.926742087472094 3.629907468322974 0.0
    vertex -12.0 1.4099832412739487e-15 0.0
  endloop
endfacet
facet normal 0.0 0.0 -1.0
  outer loop
    vertex -12.0 1.4099832412739487e-15 0.0
    vertex -11.926742087472094 3.629907468322974 0.0
    vertex -10.854101966249683 3.52671151375484 0.0
  endloop
endfacet
facet normal 0.0 0.0 -1.0
  outer loop
    vertex -10.854101966249683 3.52671151375484 0.0
    vertex -11.926742087472094 3.629907468322974 0.0
    vertex -10.785304063281819 5.0401750983411775 0.0
  endloop
endfacet
facet normal 0.0 0.0 -1.0
  outer loop
    vertex -10.854101966249683 3.52671151375484 0.0
    vertex -10.785304063281819 5.0401750983411775 0.0
    vertex -7.854101966249683 5.706339097770921 0.0
  endloop
endfacet
facet normal 0.0 0.0 -1.0
  outer loop
    vertex -7.854101966249683 5.706339097770921 0.0
    vertex -10.785304063281819 5.0401750983411775 0.0
    vertex -9.31775547526776 6.1069631246905995 0.0
  endloop
endfacet
facet normal 0.0 0.0 -1.0
  outer loop
    vertex -7.854101966249683 5.706339097770921 0.0
    vertex -9.31775547526776 6.1069631246905995 0.0
    vertex -7.624107334464361 6.7575717063261 0.0
  endloop
endfacet
facet normal 0.0 0.0 -1.0
  outer loop
    vertex -7.854101966249683 5.706339097770921 0.0
    vertex -7.624107334464361 6.7575717063261 0.0
    vertex -4.1458980337503135 5.706339097770921 0.0
  endloop
endfacet
facet normal 0.0 0.0 -1.0
  outer loop
    vertex -4.1458980337503135 5.706339097770921 0.0
    vertex -7.624107334464361 6.7575717063261 0.0
    vertex -5.81977896278149 6.947662943590733 0.0
  endloop
endfacet
facet normal 0.0 0.0 -1.0
  outer loop
    vertex -4.1458980337503135 5.706339097770921 0.0
    vertex -5.81977896278149 6.947662943590733 0.0
    vertex -4.027732356955715 6.664282432805542 0.0
  endloop
endfacet
facet normal 0.0 0.0 -1.0
  outer loop
    vertex -4.1458980337503135 5.706339097770921 0.0
    vertex -4.027732356955715 6.664282432805542 0.0
    vertex -1.1458980337503135 3.526711513754839 0.0
  endloop
endfacet
facet normal 0.0 0.0 -1.0
  outer loop
    vertex -1.1458980337503135 3.526711513754839 0.0
    vertex -4.027732356955715 6.664282432805542 0.0
    vertex -2.3700925316770207 5.926742087472091 0.0
  endloop
endfacet
facet normal 0.0 0.0 -1.0
  outer loop
    vertex -1.1458980337503135 3.526711513754839 0.0
    vertex -2.3700925316770207 5.926742087472091 0.0
    vertex -0.959824901658819 4.785304063281816 0.0
  endloop
endfacet
facet normal 0.0 0.0 -1.0
  outer loop
    vertex -1.1458980337503135 3.526711513754839 0.0
    vertex -0.959824901658819 4.785304063281816 0.0
    vertex 0.0 0.0 0.0
  endloop
endfacet
facet normal 0.0 0.0 -1.0
  outer loop
    vertex 0.0 0.0 0.0
    vertex -0.959824901658819 4.785304063281816 0.0
    vertex 0.1069631246906037 3.317755475267757 0.0
  endloop
endfacet
facet normal 0.0 0.0 -1.0
  outer loop
    vertex -12.0 1.4099832412739487e-15 0.0
    vertex -11.04017509834118 -4.785304063281815 0.0
    vertex -12.106963124690601 -3.3177554752677567 0.0
  endloop
endfacet
facet normal 0.0 0.0 -1.0
  outer loop
    vertex -11.04017509834118 -4.785304063281815 0.0
    vertex -12.0 1.4099832412739487e-15 0.0
    vertex -10.854101966249685 -3.5267115137548375 0.0
  endloop
endfacet
facet normal 0.0 0.0 -1.0
  outer loop
    vertex -11.04017509834118 -4.785304063281815 0.0
    vertex -10.854101966249685 -3.5267115137548375 0.0
    vertex -9.62990746832298 -5.92674208747209 0.0
  endloop
endfacet
facet normal 0.0 0.0 -1.0
  outer loop
    vertex -9.62990746832298 -5.92674208747209 0.0
    vertex -10.854101966249685 -3.5267115137548375 0.0
    vertex -7.854101966249684 -5.706339097770921 0.0
  endloop
endfacet
facet normal 0.0 0.0 -1.0
  outer loop
    vertex -9.62990746832298 -5.92674208747209 0.0
    vertex -7.854101966249684 -5.706339097770921 0.0
    vertex -7.972267643044289 -6.664282432805539 0.0
  endloop
endfacet
facet normal 0.0 0.0 -1.0
  outer loop
    vertex -7.972267643044289 -6.664282432805539 0.0
    vertex -7.854101966249684 -5.706339097770921 0.0
    vertex -6.180221037218518 -6.947662943590734 0.0
  endloop
endfacet
facet normal 0.0 0.0 -1.0
  outer loop
    vertex -6.180221037218518 -6.947662943590734 0.0
    vertex -7.854101966249684 -5.706339097770921 0.0
    vertex -4.145898033750316 -5.706339097770922 0.0
  endloop
endfacet
facet normal 0.0 0.0 -1.0
  outer loop
    vertex -6.180221037218518 -6.947662943590734 0.0
    vertex -4.145898033750316 -5.706339097770922 0.0
    vertex -4.375892665535649 -6.757571706326105 0.0
  endloop
endfacet
facet normal 0.0 0.0 -1.0
  outer loop
    vertex -4.375892665535649 -6.757571706326105 0.0
    vertex -4.145898033750316 -5.706339097770922 0.0
    vertex -2.682244524732253 -6.106963124690609 0.0
  endloop
endfacet
facet normal 0.0 0.0 -1.0
  outer loop
    vertex -2.682244524732253 -6.106963124690609 0.0
    vertex -4.145898033750316 -5.706339097770922 0.0
    vertex -1.1458980337503135 -3.526711513754839 0.0
  endloop
endfacet
facet normal 0.0 0.0 -1.0
  outer loop
    vertex -2.682244524732253 -6.106963124690609 0.0
    vertex -1.1458980337503135 -3.526711513754839 0.0
    vertex -1.2146959367181822 -5.040175098341179 0.0
  endloop
endfacet
facet normal 0.0 0.0 -1.0
  outer loop
    vertex -1.2146959367181822 -5.040175098341179 0.0
    vertex -1.1458980337503135 -3.526711513754839 0.0
    vertex -0.07325791252790488 -3.6299074683229775 0.0
  endloop
endfacet
facet normal 0.0 0.0 -1.0
  outer loop
    vertex -0.07325791252790488 -3.6299074683229775 0.0
    vertex -1.1458980337503135 -3.526711513754839 0.0
    vertex 0.0 0.0 0.0
  endloop
endfacet
facet normal 0.0 0.0 -1.0
  outer loop
    vertex -0.07325791252790488 -3.6299074683229775 0.0
    vertex 0.0 0.0 0.0
    vertex 0.6642824328055431 -1.9722676430442836 0.0
  endloop
endfacet
facet normal 0.0 0.0 -1.0
  outer loop
    vertex 0.6642824328055431 -1.9722676430442836 0.0
    vertex 0.0 0.0 0.0
    vertex 0.1069631246906037 3.317755475267757 0.0
  endloop
endfacet
facet normal 0.0 0.0 -1.0
  outer loop
    vertex 0.6642824328055431 -1.9722676430442836 0.0
    vertex 0.1069631246906037 3.317755475267757 0.0
    vertex 0.7575717063261013 1.6241073344643606 0.0
  endloop
endfacet
facet normal 0.0 0.0 -1.0
  outer loop
    vertex 0.6642824328055431 -1.9722676430442836 0.0
    vertex 0.7575717063261013 1.6241073344643606 0.0
    vertex 0.9476629435907338 -0.18022103721851 0.0
  endloop
endfacet
facet normal 0.9136454657932984 -0.40651194673139324 6.211324924106602e-17
  outer loop
    vertex -0.07325791252790488 -3.6299074683229766 -15.999999999999998
    vertex 0.6642824328055431 -1.9722676430442836 0.0
    vertex -0.07325791252790488 -3.6299074683229775 0.0
  endloop
endfacet
facet normal 0.9136454657932984 -0.40651194673139324 6.211324924106602e-17
  outer loop
    vertex 0.6642824328055431 -1.9722676430442836 0.0
    vertex -0.07325791252790488 -3.6299074683229766 -15.999999999999998
    vertex 0.6642824328055431 -1.972267643044283 -15.999999999999998
  endloop
endfacet
facet normal 0.7773007176058664 -0.629129235061768 2.5167730429005474e-17
  outer loop
    vertex -1.2146959367181809 -5.040175098341178 -15.999999999999998
    vertex -0.07325791252790488 -3.6299074683229775 0.0
    vertex -1.2146959367181822 -5.040175098341179 0.0
  endloop
endfacet
facet normal 0.7773007176058664 -0.629129235061768 2.5167730429005474e-17
  outer loop
    vertex -0.07325791252790488 -3.6299074683229775 0.0
    vertex -1.2146959367181809 -5.040175098341178 -15.999999999999998
    vertex -0.07325791252790488 -3.6299074683229766 -15.999999999999998
  endloop
endfacet
facet normal 0.9877267853574384 -0.15619154102402882 7.8565055395512e-17
  outer loop
    vertex 0.6642824328055431 -1.972267643044283 -15.999999999999998
    vertex 0.9476629435907338 -0.18022103721851 0.0
    vertex 0.6642824328055431 -1.9722676430442836 0.0
  endloop
endfacet
facet normal 0.9877267853574384 -0.15619154102402882 7.8565055395512e-17
  outer loop
    vertex 0.9476629435907338 -0.18022103721851 0.0
    vertex 0.6642824328055431 -1.972267643044283 -15.999999999999998
    vertex 0.9476629435907366 -0.18022103721850857 -15.999999999999998
  endloop
endfacet
facet normal -0.7773007176058669 0.6291292350617672 3.891978525202055e-17
  outer loop
    vertex -11.926742087472094 3.629907468322974 0.0
    vertex -10.785304063281819 5.0401750983411775 -15.999999999999998
    vertex -11.926742087472096 3.6299074683229726 -15.999999999999998
  endloop
endfacet
facet normal -0.7773007176058669 0.6291292350617672 3.891978525202055e-17
  outer loop
    vertex -10.785304063281819 5.0401750983411775 -15.999999999999998
    vertex -11.926742087472094 3.629907468322974 0.0
    vertex -10.785304063281819 5.0401750983411775 0.0
  endloop
endfacet
facet normal -0.10477306008539693 0.9944961567951593 4.9889744770042946e-17
  outer loop
    vertex -7.624107334464361 6.7575717063261 0.0
    vertex -5.819778962781491 6.9476629435907356 -15.999999999999998
    vertex -7.624107334464362 6.7575717063261 -15.999999999999998
  endloop
endfacet
facet normal -0.10477306008539693 0.9944961567951593 4.9889744770042946e-17
  outer loop
    vertex -5.819778962781491 6.9476629435907356 -15.999999999999998
    vertex -7.624107334464361 6.7575717063261 0.0
    vertex -5.81977896278149 6.947662943590733 0.0
  endloop
endfacet
facet normal -0.5879842100637662 0.8088724057079021 8.024304442176221e-18
  outer loop
    vertex -10.785304063281819 5.0401750983411775 0.0
    vertex -9.31775547526776 6.1069631246905995 -15.999999999999998
    vertex -10.785304063281819 5.0401750983411775 -15.999999999999998
  endloop
endfacet
facet normal -0.5879842100637662 0.8088724057079021 8.024304442176221e-18
  outer loop
    vertex -9.31775547526776 6.1069631246905995 -15.999999999999998
    vertex -10.785304063281819 5.0401750983411775 0.0
    vertex -9.31775547526776 6.1069631246905995 0.0
  endloop
endfacet
facet normal 0.629129235061768 0.7773007176058665 2.565618079462469e-17
  outer loop
    vertex -2.3700925316770207 5.926742087472091 0.0
    vertex -0.959824901658819 4.785304063281816 -15.999999999999998
    vertex -2.370092531677022 5.926742087472094 -15.999999999999998
  endloop
endfacet
facet normal 0.629129235061768 0.7773007176058665 2.565618079462469e-17
  outer loop
    vertex -0.959824901658819 4.785304063281816 -15.999999999999998
    vertex -2.3700925316770207 5.926742087472091 0.0
    vertex -0.959824901658819 4.785304063281816 0.0
  endloop
endfacet
facet normal 0.4065119467313933 0.9136454657932982 7.675297232894295e-17
  outer loop
    vertex -4.027732356955715 6.664282432805542 0.0
    vertex -2.370092531677022 5.926742087472094 -15.999999999999998
    vertex -4.027732356955715 6.664282432805542 -15.999999999999998
  endloop
endfacet
facet normal 0.4065119467313933 0.9136454657932982 7.675297232894295e-17
  outer loop
    vertex -2.370092531677022 5.926742087472094 -15.999999999999998
    vertex -4.027732356955715 6.664282432805542 0.0
    vertex -2.3700925316770207 5.926742087472091 0.0
  endloop
endfacet
facet normal 0.8088724057079021 0.5879842100637661 8.024304442176221e-18
  outer loop
    vertex -0.959824901658819 4.785304063281816 -15.999999999999998
    vertex 0.1069631246906037 3.317755475267757 0.0
    vertex 0.1069631246906037 3.317755475267757 -15.999999999999998
  endloop
endfacet
facet normal 0.8088724057079021 0.5879842100637661 8.024304442176221e-18
  outer loop
    vertex 0.1069631246906037 3.317755475267757 0.0
    vertex -0.959824901658819 4.785304063281816 -15.999999999999998
    vertex -0.959824901658819 4.785304063281816 0.0
  endloop
endfacet
facet normal 0.9334922586298959 0.3585975502956702 -2.5133098593637277e-17
  outer loop
    vertex 0.1069631246906037 3.317755475267757 -15.999999999999998
    vertex 0.7575717063261013 1.6241073344643606 0.0
    vertex 0.7575717063261013 1.6241073344643606 -15.999999999999998
  endloop
endfacet
facet normal 0.9334922586298959 0.3585975502956702 -2.5133098593637277e-17
  outer loop
    vertex 0.7575717063261013 1.6241073344643606 0.0
    vertex 0.1069631246906037 3.317755475267757 -15.999999999999998
    vertex 0.1069631246906037 3.317755475267757 0.0
  endloop
endfacet
facet normal 0.9944961567951593 0.10477306008539665 5.496529943815289e-18
  outer loop
    vertex 0.9476629435907366 -0.18022103721850857 -15.999999999999998
    vertex 0.7575717063261013 1.6241073344643606 0.0
    vertex 0.9476629435907338 -0.18022103721851 0.0
  endloop
endfacet
facet normal 0.9944961567951593 0.10477306008539665 5.496529943815289e-18
  outer loop
    vertex 0.7575717063261013 1.6241073344643606 0.0
    vertex 0.9476629435907366 -0.18022103721850857 -15.999999999999998
    vertex 0.7575717063261013 1.6241073344643606 -15.999999999999998
  endloop
endfacet
facet normal -0.913645465793299 0.40651194673139207 2.572508928619578e-17
  outer loop
    vertex -11.926742087472094 3.629907468322974 0.0
    vertex -12.66428243280554 1.9722676430442778 -15.999999999999998
    vertex -12.66428243280554 1.9722676430442778 0.0
  endloop
endfacet
facet normal -0.913645465793299 0.40651194673139207 2.572508928619578e-17
  outer loop
    vertex -12.66428243280554 1.9722676430442778 -15.999999999999998
    vertex -11.926742087472094 3.629907468322974 0.0
    vertex -11.926742087472096 3.6299074683229726 -15.999999999999998
  endloop
endfacet
facet normal 0.15619154102402866 0.9877267853574384 8.061355784812122e-17
  outer loop
    vertex -5.81977896278149 6.947662943590733 0.0
    vertex -4.027732356955715 6.664282432805542 -15.999999999999998
    vertex -5.819778962781491 6.9476629435907356 -15.999999999999998
  endloop
endfacet
facet normal 0.15619154102402866 0.9877267853574384 8.061355784812122e-17
  outer loop
    vertex -4.027732356955715 6.664282432805542 -15.999999999999998
    vertex -5.81977896278149 6.947662943590733 0.0
    vertex -4.027732356955715 6.664282432805542 0.0
  endloop
endfacet
facet normal -0.3585975502956709 0.9334922586298957 -2.488911959087007e-20
  outer loop
    vertex -9.31775547526776 6.1069631246905995 0.0
    vertex -7.624107334464362 6.7575717063261 -15.999999999999998
    vertex -9.31775547526776 6.1069631246905995 -15.999999999999998
  endloop
endfacet
facet normal -0.3585975502956709 0.9334922586298957 -2.488911959087007e-20
  outer loop
    vertex -7.624107334464362 6.7575717063261 -15.999999999999998
    vertex -9.31775547526776 6.1069631246905995 0.0
    vertex -7.624107334464361 6.7575717063261 0.0
  endloop
endfacet
facet normal -0.9944961567951593 -0.10477306008539636 5.0347788932027526e-17
  outer loop
    vertex -12.757571706326098 -1.6241073344643622 0.0
    vertex -12.947662943590734 0.18022103721850435 -15.999999999999998
    vertex -12.757571706326102 -1.6241073344643628 -15.999999999999998
  endloop
endfacet
facet normal -0.9944961567951593 -0.10477306008539636 5.0347788932027526e-17
  outer loop
    vertex -12.947662943590734 0.18022103721850435 -15.999999999999998
    vertex -12.757571706326098 -1.6241073344643622 0.0
    vertex -12.947662943590734 0.18022103721850577 0.0
  endloop
endfacet
facet normal -0.6291292350617681 -0.7773007176058664 5.267184007503553e-17
  outer loop
    vertex -9.62990746832298 -5.92674208747209 0.0
    vertex -11.04017509834118 -4.785304063281816 -15.999999999999998
    vertex -9.62990746832298 -5.926742087472091 -15.999999999999998
  endloop
endfacet
facet normal -0.6291292350617681 -0.7773007176058664 5.267184007503553e-17
  outer loop
    vertex -11.04017509834118 -4.785304063281816 -15.999999999999998
    vertex -9.62990746832298 -5.92674208747209 0.0
    vertex -11.04017509834118 -4.785304063281815 0.0
  endloop
endfacet
facet normal -0.8088724057079024 -0.587984210063766 2.5705342054467443e-17
  outer loop
    vertex -11.04017509834118 -4.785304063281815 0.0
    vertex -12.106963124690601 -3.317755475267757 -15.999999999999998
    vertex -11.04017509834118 -4.785304063281816 -15.999999999999998
  endloop
endfacet
facet normal -0.8088724057079024 -0.587984210063766 2.5705342054467443e-17
  outer loop
    vertex -12.106963124690601 -3.317755475267757 -15.999999999999998
    vertex -11.04017509834118 -4.785304063281815 0.0
    vertex -12.106963124690601 -3.3177554752677567 0.0
  endloop
endfacet
facet normal 0.10477306008539437 -0.9944961567951596 2.2902208099229866e-18
  outer loop
    vertex -4.375892665535649 -6.757571706326105 0.0
    vertex -6.180221037218518 -6.947662943590734 -15.999999999999998
    vertex -4.375892665535648 -6.757571706326105 -15.999999999999998
  endloop
endfacet
facet normal 0.10477306008539437 -0.9944961567951596 2.2902208099229866e-18
  outer loop
    vertex -6.180221037218518 -6.947662943590734 -15.999999999999998
    vertex -4.375892665535649 -6.757571706326105 0.0
    vertex -6.180221037218518 -6.947662943590734 0.0
  endloop
endfacet
facet normal -0.9334922586298957 -0.35859755029567053 5.852775772746519e-17
  outer loop
    vertex -12.106963124690601 -3.3177554752677567 0.0
    vertex -12.757571706326102 -1.6241073344643628 -15.999999999999998
    vertex -12.106963124690601 -3.317755475267757 -15.999999999999998
  endloop
endfacet
facet normal -0.9334922586298957 -0.35859755029567053 5.852775772746519e-17
  outer loop
    vertex -12.757571706326102 -1.6241073344643628 -15.999999999999998
    vertex -12.106963124690601 -3.3177554752677567 0.0
    vertex -12.757571706326098 -1.6241073344643622 0.0
  endloop
endfacet
facet normal -0.40651194673139424 -0.9136454657932979 3.6388159954870275e-17
  outer loop
    vertex -7.972267643044289 -6.664282432805539 0.0
    vertex -9.62990746832298 -5.926742087472091 -15.999999999999998
    vertex -7.972267643044289 -6.664282432805539 -15.999999999999998
  endloop
endfacet
facet normal -0.40651194673139424 -0.9136454657932979 3.6388159954870275e-17
  outer loop
    vertex -9.62990746832298 -5.926742087472091 -15.999999999999998
    vertex -7.972267643044289 -6.664282432805539 0.0
    vertex -9.62990746832298 -5.92674208747209 0.0
  endloop
endfacet
facet normal 0.5879842100637656 -0.8088724057079025 8.024304442176186e-18
  outer loop
    vertex -1.2146959367181822 -5.040175098341179 0.0
    vertex -2.682244524732253 -6.106963124690609 -15.999999999999998
    vertex -1.2146959367181809 -5.040175098341178 -15.999999999999998
  endloop
endfacet
facet normal 0.5879842100637656 -0.8088724057079025 8.024304442176186e-18
  outer loop
    vertex -2.682244524732253 -6.106963124690609 -15.999999999999998
    vertex -1.2146959367181822 -5.040175098341179 0.0
    vertex -2.682244524732253 -6.106963124690609 0.0
  endloop
endfacet
facet normal -0.9877267853574386 0.15619154102402816 -8.876843961306536e-18
  outer loop
    vertex -12.947662943590734 0.18022103721850577 0.0
    vertex -12.66428243280554 1.9722676430442778 -15.999999999999998
    vertex -12.947662943590734 0.18022103721850435 -15.999999999999998
  endloop
endfacet
facet normal -0.9877267853574386 0.15619154102402816 -8.876843961306536e-18
  outer loop
    vertex -12.66428243280554 1.9722676430442778 -15.999999999999998
    vertex -12.947662943590734 0.18022103721850577 0.0
    vertex -12.66428243280554 1.9722676430442778 0.0
  endloop
endfacet
facet normal -0.15619154102402974 -0.9877267853574384 -1.3656683017394811e-18
  outer loop
    vertex -6.180221037218518 -6.947662943590734 0.0
    vertex -7.972267643044289 -6.664282432805539 -15.999999999999998
    vertex -6.180221037218518 -6.947662943590734 -15.999999999999998
  endloop
endfacet
facet normal -0.15619154102402974 -0.9877267853574384 -1.3656683017394811e-18
  outer loop
    vertex -7.972267643044289 -6.664282432805539 -15.999999999999998
    vertex -6.180221037218518 -6.947662943590734 0.0
    vertex -7.972267643044289 -6.664282432805539 0.0
  endloop
endfacet
facet normal 0.3585975502956691 -0.9334922586298963 1.5677075221534603e-17
  outer loop
    vertex -2.682244524732253 -6.106963124690609 0.0
    vertex -4.375892665535648 -6.757571706326105 -15.999999999999998
    vertex -2.682244524732253 -6.106963124690609 -15.999999999999998
  endloop
endfacet
facet normal 0.3585975502956691 -0.9334922586298963 1.5677075221534603e-17
  outer loop
    vertex -4.375892665535648 -6.757571706326105 -15.999999999999998
    vertex -2.682244524732253 -6.106963124690609 0.0
    vertex -4.375892665535649 -6.757571706326105 0.0
  endloop
endfacet
facet normal 0.5874901098755266 0.8086107656882976 -0.03168596552776711
  outer loop
    vertex -4.1458980337503135 5.706339097770921 0.0
    vertex -1.5504065309377868 3.232818887608599 -15.0
    vertex -4.300406530937786 5.230810839623343 -15.0
  endloop
endfacet
facet normal 0.5874901098755266 0.8086107656882976 -0.03168596552776711
  outer loop
    vertex -1.5504065309377868 3.232818887608599 -15.0
    vertex -4.1458980337503135 5.706339097770921 0.0
    vertex -1.1458980337503135 3.526711513754839 0.0
  endloop
endfacet
facet normal 0.950578965833012 0.3088618288238521 -0.03168596552776706
  outer loop
    vertex -1.5504065309377868 3.232818887608599 -15.0
    vertex 0.0 0.0 0.0
    vertex -0.49999999999999906 -4.229949723821846e-15 -15.0
  endloop
endfacet
facet normal 0.950578965833012 0.3088618288238521 -0.03168596552776706
  outer loop
    vertex 0.0 0.0 0.0
    vertex -1.5504065309377868 3.232818887608599 -15.0
    vertex -1.1458980337503135 3.526711513754839 0.0
  endloop
endfacet
facet normal 0.9505789658330119 -0.3088618288238528 -0.03168596552776704
  outer loop
    vertex -1.5504065309377895 -3.2328188876086053 -15.0
    vertex 0.0 0.0 0.0
    vertex -1.1458980337503135 -3.526711513754839 0.0
  endloop
endfacet
facet normal 0.9505789658330119 -0.3088618288238528 -0.03168596552776704
  outer loop
    vertex 0.0 0.0 0.0
    vertex -1.5504065309377895 -3.2328188876086053 -15.0
    vertex -0.49999999999999906 -4.229949723821846e-15 -15.0
  endloop
endfacet
facet normal 0.5874901098755261 -0.8086107656882979 -0.03168596552776705
  outer loop
    vertex -1.1458980337503135 -3.526711513754839 0.0
    vertex -4.300406530937791 -5.230810839623345 -15.0
    vertex -1.5504065309377895 -3.2328188876086053 -15.0
  endloop
endfacet
facet normal 0.5874901098755261 -0.8086107656882979 -0.03168596552776705
  outer loop
    vertex -4.300406530937791 -5.230810839623345 -15.0
    vertex -1.1458980337503135 -3.526711513754839 0.0
    vertex -4.145898033750316 -5.706339097770922 0.0
  endloop
endfacet
facet normal -3.8046697213724793e-16 -0.9994978737288905 -0.0316859655277671
  outer loop
    vertex -4.145898033750316 -5.706339097770922 0.0
    vertex -7.699593469062211 -5.230810839623343 -15.0
    vertex -4.300406530937791 -5.230810839623345 -15.0
  endloop
endfacet
facet normal -3.8046697213724793e-16 -0.9994978737288905 -0.0316859655277671
  outer loop
    vertex -7.699593469062211 -5.230810839623343 -15.0
    vertex -4.145898033750316 -5.706339097770922 0.0
    vertex -7.854101966249684 -5.706339097770921 0.0
  endloop
endfacet
facet normal -0.5874901098755267 -0.8086107656882975 -0.031685965527767083
  outer loop
    vertex -7.854101966249684 -5.706339097770921 0.0
    vertex -10.449593469062211 -3.2328188876085995 -15.0
    vertex -7.699593469062211 -5.230810839623343 -15.0
  endloop
endfacet
facet normal -0.5874901098755267 -0.8086107656882975 -0.031685965527767083
  outer loop
    vertex -10.449593469062211 -3.2328188876085995 -15.0
    vertex -7.854101966249684 -5.706339097770921 0.0
    vertex -10.854101966249685 -3.5267115137548375 0.0
  endloop
endfacet
facet normal -0.950578965833012 -0.30886182882385216 -0.031685965527767083
  outer loop
    vertex -12.0 1.4099832412739487e-15 0.0
    vertex -10.449593469062211 -3.2328188876085995 -15.0
    vertex -10.854101966249685 -3.5267115137548375 0.0
  endloop
endfacet
facet normal -0.950578965833012 -0.30886182882385216 -0.031685965527767083
  outer loop
    vertex -10.449593469062211 -3.2328188876085995 -15.0
    vertex -12.0 1.4099832412739487e-15 0.0
    vertex -11.499999999999998 2.8199664825478975e-15 -15.0
  endloop
endfacet
facet normal -0.9505789658330119 0.3088618288238527 -0.031685965527767056
  outer loop
    vertex -10.854101966249683 3.52671151375484 0.0
    vertex -11.499999999999998 2.8199664825478975e-15 -15.0
    vertex -12.0 1.4099832412739487e-15 0.0
  endloop
endfacet
facet normal -0.9505789658330119 0.3088618288238527 -0.031685965527767056
  outer loop
    vertex -11.499999999999998 2.8199664825478975e-15 -15.0
    vertex -10.854101966249683 3.52671151375484 0.0
    vertex -10.449593469062208 3.2328188876086044 -15.0
  endloop
endfacet
facet normal -0.5874901098755261 0.808610765688298 -0.03168596552776704
  outer loop
    vertex -10.854101966249683 3.52671151375484 0.0
    vertex -7.699593469062208 5.230810839623346 -15.0
    vertex -10.449593469062208 3.2328188876086044 -15.0
  endloop
endfacet
facet normal -0.5874901098755261 0.808610765688298 -0.03168596552776704
  outer loop
    vertex -7.699593469062208 5.230810839623346 -15.0
    vertex -10.854101966249683 3.52671151375484 0.0
    vertex -7.854101966249683 5.706339097770921 0.0
  endloop
endfacet
facet normal 1.8138578339383085e-16 0.9994978737288905 -0.03168596552776705
  outer loop
    vertex -7.854101966249683 5.706339097770921 0.0
    vertex -4.300406530937786 5.230810839623343 -15.0
    vertex -7.699593469062208 5.230810839623346 -15.0
  endloop
endfacet
facet normal 1.8138578339383085e-16 0.9994978737288905 -0.03168596552776705
  outer loop
    vertex -4.300406530937786 5.230810839623343 -15.0
    vertex -7.854101966249683 5.706339097770921 0.0
    vertex -4.1458980337503135 5.706339097770921 0.0
  endloop
endfacet
facet normal 0.0 0.0 -1.0
  outer loop
    vertex -10.449593469062208 3.2328188876086044 -15.0
    vertex -10.449593469062211 -3.2328188876085995 -15.0
    vertex -11.499999999999998 2.8199664825478975e-15 -15.0
  endloop
endfacet
facet normal 0.0 0.0 -1.0
  outer loop
    vertex -10.449593469062211 -3.2328188876085995 -15.0
    vertex -10.449593469062208 3.2328188876086044 -15.0
    vertex -7.699593469062211 -5.230810839623343 -15.0
  endloop
endfacet
facet normal 0.0 0.0 -1.0
  outer loop
    vertex -7.699593469062211 -5.230810839623343 -15.0
    vertex -10.449593469062208 3.2328188876086044 -15.0
    vertex -7.699593469062208 5.230810839623346 -15.0
  endloop
endfacet
facet normal 0.0 0.0 -1.0
  outer loop
    vertex -7.699593469062211 -5.230810839623343 -15.0
    vertex -7.699593469062208 5.230810839623346 -15.0
    vertex -4.300406530937791 -5.230810839623345 -15.0
  endloop
endfacet
facet normal 0.0 0.0 -1.0
  outer loop
    vertex -4.300406530937791 -5.230810839623345 -15.0
    vertex -7.699593469062208 5.230810839623346 -15.0
    vertex -4.300406530937786 5.230810839623343 -15.0
  endloop
endfacet
facet normal 0.0 0.0 -1.0
  outer loop
    vertex -4.300406530937791 -5.230810839623345 -15.0
    vertex -4.300406530937786 5.230810839623343 -15.0
    vertex -1.5504065309377895 -3.2328188876086053 -15.0
  endloop
endfacet
facet normal 0.0 0.0 -1.0
  outer loop
    vertex -1.5504065309377895 -3.2328188876086053 -15.0
    vertex -4.300406530937786 5.230810839623343 -15.0
    vertex -1.5504065309377868 3.232818887608599 -15.0
  endloop
endfacet
facet normal 0.0 0.0 -1.0
  outer loop
    vertex -1.5504065309377895 -3.2328188876086053 -15.0
    vertex -1.5504065309377868 3.232818887608599 -15.0
    vertex -0.49999999999999906 -4.229949723821846e-15 -15.0
  endloop
endfacet
facet normal 0.0 0.0 -1.0
  outer loop
    vertex -8.712499999999993 4.6981878155305825 -44.49999999999998
    vertex -8.34237012875099 0.627636184373614 -44.49999999999998
    vertex -8.424999999999999 2.8199664825478975e-15 -44.49999999999998
  endloop
endfacet
facet normal 0.0 0.0 -1.0
  outer loop
    vertex -8.34237012875099 0.627636184373614 -44.49999999999998
    vertex -8.712499999999993 4.6981878155305825 -44.49999999999998
    vertex -7.404093319681166 5.240147607618196 -44.49999999999998
  endloop
endfacet
facet normal 0.0 0.0 -1.0
  outer loop
    vertex -8.34237012875099 0.627636184373614 -44.49999999999998
    vertex -7.404093319681166 5.240147607618196 -44.49999999999998
    vertex -8.100111604177261 1.2125000000000006 -44.49999999999998
  endloop
endfacet
facet normal 0.0 0.0 -1.0
  outer loop
    vertex -8.100111604177261 1.2125000000000006 -44.49999999999998
    vertex -7.404093319681166 5.240147607618196 -44.49999999999998
    vertex -7.714733944377375 1.7147339443773775 -44.49999999999998
  endloop
endfacet
facet normal 0.0 0.0 -1.0
  outer loop
    vertex -7.714733944377375 1.7147339443773775 -44.49999999999998
    vertex -7.404093319681166 5.240147607618196 -44.49999999999998
    vertex -7.212499999999998 2.1001116041772625 -44.49999999999998
  endloop
endfacet
facet normal 0.0 0.0 -1.0
  outer loop
    vertex -7.212499999999998 2.1001116041772625 -44.49999999999998
    vertex -7.404093319681166 5.240147607618196 -44.49999999999998
    vertex -5.99999999999999 5.425 -44.49999999999998
  endloop
endfacet
facet normal 0.0 0.0 -1.0
  outer loop
    vertex -7.212499999999998 2.1001116041772625 -44.49999999999998
    vertex -5.99999999999999 5.425 -44.49999999999998
    vertex -6.627636184373613 2.34237012875099 -44.49999999999998
  endloop
endfacet
facet normal 0.0 0.0 -1.0
  outer loop
    vertex -6.627636184373613 2.34237012875099 -44.49999999999998
    vertex -5.99999999999999 5.425 -44.49999999999998
    vertex -6.0 2.425 -44.49999999999998
  endloop
endfacet
facet normal 0.0 0.0 -1.0
  outer loop
    vertex -6.0 2.425 -44.49999999999998
    vertex -5.99999999999999 5.425 -44.49999999999998
    vertex -5.372363815626388 2.34237012875099 -44.49999999999998
  endloop
endfacet
facet normal 0.0 0.0 -1.0
  outer loop
    vertex -5.372363815626388 2.34237012875099 -44.49999999999998
    vertex -5.99999999999999 5.425 -44.49999999999998
    vertex -4.595906680318815 5.2401476076181925 -44.49999999999998
  endloop
endfacet
facet normal 0.0 0.0 -1.0
  outer loop
    vertex -5.372363815626388 2.34237012875099 -44.49999999999998
    vertex -4.595906680318815 5.2401476076181925 -44.49999999999998
    vertex -4.7875 2.100111604177264 -44.49999999999998
  endloop
endfacet
facet normal 0.0 0.0 -1.0
  outer loop
    vertex -4.7875 2.100111604177264 -44.49999999999998
    vertex -4.595906680318815 5.2401476076181925 -44.49999999999998
    vertex -4.285266055622623 1.7147339443773775 -44.49999999999998
  endloop
endfacet
facet normal 0.0 0.0 -1.0
  outer loop
    vertex -4.285266055622623 1.7147339443773775 -44.49999999999998
    vertex -4.595906680318815 5.2401476076181925 -44.49999999999998
    vertex -3.287499999999991 4.6981878155305745 -44.49999999999998
  endloop
endfacet
facet normal 0.0 0.0 -1.0
  outer loop
    vertex -4.285266055622623 1.7147339443773775 -44.49999999999998
    vertex -3.287499999999991 4.6981878155305745 -44.49999999999998
    vertex -3.8998883958227366 1.2125000000000006 -44.49999999999998
  endloop
endfacet
facet normal 0.0 0.0 -1.0
  outer loop
    vertex -3.8998883958227366 1.2125000000000006 -44.49999999999998
    vertex -3.287499999999991 4.6981878155305745 -44.49999999999998
    vertex -3.6576298712490085 0.6276361843736127 -44.49999999999998
  endloop
endfacet
facet normal 0.0 0.0 -1.0
  outer loop
    vertex -3.6576298712490085 0.6276361843736127 -44.49999999999998
    vertex -3.287499999999991 4.6981878155305745 -44.49999999999998
    vertex -3.5749999999999993 0.0 -44.49999999999998
  endloop
endfacet
facet normal 0.0 0.0 -1.0
  outer loop
    vertex -3.5749999999999993 0.0 -44.49999999999998
    vertex -3.287499999999991 4.6981878155305745 -44.49999999999998
    vertex -3.2875000000000125 -4.698187815530587 -44.49999999999998
  endloop
endfacet
facet normal 0.0 0.0 -1.0
  outer loop
    vertex -3.2875000000000125 -4.698187815530587 -44.49999999999998
    vertex -3.287499999999991 4.6981878155305745 -44.49999999999998
    vertex -2.1639457120629904 -3.8360542879370323 -44.49999999999998
  endloop
endfacet
facet normal 0.0 0.0 -1.0
  outer loop
    vertex -2.1639457120629904 -3.8360542879370323 -44.49999999999998
    vertex -3.287499999999991 4.6981878155305745 -44.49999999999998
    vertex -2.163945712062972 3.836054287937014 -44.49999999999998
  endloop
endfacet
facet normal 0.0 0.0 -1.0
  outer loop
    vertex -2.1639457120629904 -3.8360542879370323 -44.49999999999998
    vertex -2.163945712062972 3.836054287937014 -44.49999999999998
    vertex -1.301812184469429 -2.7125000000000163 -44.49999999999998
  endloop
endfacet
facet normal 0.0 0.0 -1.0
  outer loop
    vertex -1.301812184469429 -2.7125000000000163 -44.49999999999998
    vertex -2.163945712062972 3.836054287937014 -44.49999999999998
    vertex -1.3018121844694162 2.7124999999999924 -44.49999999999998
  endloop
endfacet
facet normal 0.0 0.0 -1.0
  outer loop
    vertex -1.301812184469429 -2.7125000000000163 -44.49999999999998
    vertex -1.3018121844694162 2.7124999999999924 -44.49999999999998
    vertex -0.7598523923818067 -1.4040933196811825 -44.49999999999998
  endloop
endfacet
facet normal 0.0 0.0 -1.0
  outer loop
    vertex -0.7598523923818067 -1.4040933196811825 -44.49999999999998
    vertex -1.3018121844694162 2.7124999999999924 -44.49999999999998
    vertex -0.759852392381801 1.404093319681167 -44.49999999999998
  endloop
endfacet
facet normal 0.0 0.0 -1.0
  outer loop
    vertex -0.7598523923818067 -1.4040933196811825 -44.49999999999998
    vertex -0.759852392381801 1.404093319681167 -44.49999999999998
    vertex -0.574999999999999 -8.459899447643692e-15 -44.49999999999998
  endloop
endfacet
facet normal 0.0 0.0 -1.0
  outer loop
    vertex -11.240147607618194 1.4040933196811796 -44.49999999999998
    vertex -11.240147607618196 -1.4040933196811711 -44.49999999999998
    vertex -11.424999999999999 4.229949723821846e-15 -44.49999999999998
  endloop
endfacet
facet normal 0.0 0.0 -1.0
  outer loop
    vertex -11.240147607618196 -1.4040933196811711 -44.49999999999998
    vertex -11.240147607618194 1.4040933196811796 -44.49999999999998
    vertex -10.69818781553058 -2.712499999999995 -44.49999999999998
  endloop
endfacet
facet normal 0.0 0.0 -1.0
  outer loop
    vertex -10.69818781553058 -2.712499999999995 -44.49999999999998
    vertex -11.240147607618194 1.4040933196811796 -44.49999999999998
    vertex -10.698187815530575 2.712500000000005 -44.49999999999998
  endloop
endfacet
facet normal 0.0 0.0 -1.0
  outer loop
    vertex -10.69818781553058 -2.712499999999995 -44.49999999999998
    vertex -10.698187815530575 2.712500000000005 -44.49999999999998
    vertex -9.836054287937023 -3.836054287937015 -44.49999999999998
  endloop
endfacet
facet normal 0.0 0.0 -1.0
  outer loop
    vertex -9.836054287937023 -3.836054287937015 -44.49999999999998
    vertex -10.698187815530575 2.712500000000005 -44.49999999999998
    vertex -9.836054287937014 3.836054287937024 -44.49999999999998
  endloop
endfacet
facet normal 0.0 0.0 -1.0
  outer loop
    vertex -9.836054287937023 -3.836054287937015 -44.49999999999998
    vertex -9.836054287937014 3.836054287937024 -44.49999999999998
    vertex -8.712500000000007 -4.6981878155305745 -44.49999999999998
  endloop
endfacet
facet normal 0.0 0.0 -1.0
  outer loop
    vertex -8.712500000000007 -4.6981878155305745 -44.49999999999998
    vertex -9.836054287937014 3.836054287937024 -44.49999999999998
    vertex -8.712499999999993 4.6981878155305825 -44.49999999999998
  endloop
endfacet
facet normal 0.0 0.0 -1.0
  outer loop
    vertex -8.712500000000007 -4.6981878155305745 -44.49999999999998
    vertex -8.712499999999993 4.6981878155305825 -44.49999999999998
    vertex -8.424999999999999 2.8199664825478975e-15 -44.49999999999998
  endloop
endfacet
facet normal 0.0 0.0 -1.0
  outer loop
    vertex -8.712500000000007 -4.6981878155305745 -44.49999999999998
    vertex -8.424999999999999 2.8199664825478975e-15 -44.49999999999998
    vertex -8.34237012875099 -0.6276361843736098 -44.49999999999998
  endloop
endfacet
facet normal 0.0 0.0 -1.0
  outer loop
    vertex -8.712500000000007 -4.6981878155305745 -44.49999999999998
    vertex -8.34237012875099 -0.6276361843736098 -44.49999999999998
    vertex -7.404093319681184 -5.2401476076181925 -44.49999999999998
  endloop
endfacet
facet normal 0.0 0.0 -1.0
  outer loop
    vertex -7.404093319681184 -5.2401476076181925 -44.49999999999998
    vertex -8.34237012875099 -0.6276361843736098 -44.49999999999998
    vertex -8.100111604177265 -1.2124999999999964 -44.49999999999998
  endloop
endfacet
facet normal 0.0 0.0 -1.0
  outer loop
    vertex -7.404093319681184 -5.2401476076181925 -44.49999999999998
    vertex -8.100111604177265 -1.2124999999999964 -44.49999999999998
    vertex -7.714733944377379 -1.7147339443773733 -44.49999999999998
  endloop
endfacet
facet normal 0.0 0.0 -1.0
  outer loop
    vertex -7.404093319681184 -5.2401476076181925 -44.49999999999998
    vertex -7.714733944377379 -1.7147339443773733 -44.49999999999998
    vertex -7.212499999999998 -2.100111604177263 -44.49999999999998
  endloop
endfacet
facet normal 0.0 0.0 -1.0
  outer loop
    vertex -7.404093319681184 -5.2401476076181925 -44.49999999999998
    vertex -7.212499999999998 -2.100111604177263 -44.49999999999998
    vertex -6.00000000000001 -5.425 -44.49999999999998
  endloop
endfacet
facet normal 0.0 0.0 -1.0
  outer loop
    vertex -6.00000000000001 -5.425 -44.49999999999998
    vertex -7.212499999999998 -2.100111604177263 -44.49999999999998
    vertex -6.627636184373611 -2.34237012875099 -44.49999999999998
  endloop
endfacet
facet normal 0.0 0.0 -1.0
  outer loop
    vertex -6.00000000000001 -5.425 -44.49999999999998
    vertex -6.627636184373611 -2.34237012875099 -44.49999999999998
    vertex -5.999999999999999 -2.425 -44.49999999999998
  endloop
endfacet
facet normal 0.0 0.0 -1.0
  outer loop
    vertex -6.00000000000001 -5.425 -44.49999999999998
    vertex -5.999999999999999 -2.425 -44.49999999999998
    vertex -4.595906680318838 -5.2401476076182 -44.49999999999998
  endloop
endfacet
facet normal 0.0 0.0 -1.0
  outer loop
    vertex -4.595906680318838 -5.2401476076182 -44.49999999999998
    vertex -5.999999999999999 -2.425 -44.49999999999998
    vertex -5.372363815626386 -2.34237012875099 -44.49999999999998
  endloop
endfacet
facet normal 0.0 0.0 -1.0
  outer loop
    vertex -4.595906680318838 -5.2401476076182 -44.49999999999998
    vertex -5.372363815626386 -2.34237012875099 -44.49999999999998
    vertex -4.7875 -2.100111604177263 -44.49999999999998
  endloop
endfacet
facet normal 0.0 0.0 -1.0
  outer loop
    vertex -4.595906680318838 -5.2401476076182 -44.49999999999998
    vertex -4.7875 -2.100111604177263 -44.49999999999998
    vertex -4.285266055622623 -1.7147339443773775 -44.49999999999998
  endloop
endfacet
facet normal 0.0 0.0 -1.0
  outer loop
    vertex -4.595906680318838 -5.2401476076182 -44.49999999999998
    vertex -4.285266055622623 -1.7147339443773775 -44.49999999999998
    vertex -3.2875000000000125 -4.698187815530587 -44.49999999999998
  endloop
endfacet
facet normal 0.0 0.0 -1.0
  outer loop
    vertex -3.2875000000000125 -4.698187815530587 -44.49999999999998
    vertex -4.285266055622623 -1.7147339443773775 -44.49999999999998
    vertex -3.8998883958227366 -1.2125000000000006 -44.49999999999998
  endloop
endfacet
facet normal 0.0 0.0 -1.0
  outer loop
    vertex -3.2875000000000125 -4.698187815530587 -44.49999999999998
    vertex -3.8998883958227366 -1.2125000000000006 -44.49999999999998
    vertex -3.6576298712490085 -0.6276361843736127 -44.49999999999998
  endloop
endfacet
facet normal 0.0 0.0 -1.0
  outer loop
    vertex -3.2875000000000125 -4.698187815530587 -44.49999999999998
    vertex -3.6576298712490085 -0.6276361843736127 -44.49999999999998
    vertex -3.5749999999999993 0.0 -44.49999999999998
  endloop
endfacet
facet normal 0.7933533402912344 -0.6087614290087218 -1.4063617088575197e-17
  outer loop
    vertex -1.301812184469429 -2.7125000000000163 -44.49999999999998
    vertex -2.163945712062978 -3.83605428793702 -15.999999999999998
    vertex -2.1639457120629904 -3.8360542879370323 -44.49999999999998
  endloop
endfacet
facet normal 0.7933533402912344 -0.6087614290087218 -1.4063617088575197e-17
  outer loop
    vertex -2.163945712062978 -3.83605428793702 -15.999999999999998
    vertex -1.301812184469429 -2.7125000000000163 -44.49999999999998
    vertex -1.301812184469419 -2.7124999999999995 -15.999999999999998
  endloop
endfacet
facet normal 0.38268343236508917 -0.9238795325112871 -6.881630898293937e-19
  outer loop
    vertex -3.287499999999997 -4.698187815530578 -15.999999999999998
    vertex -4.595906680318838 -5.2401476076182 -44.49999999999998
    vertex -3.2875000000000125 -4.698187815530587 -44.49999999999998
  endloop
endfacet
facet normal 0.38268343236508917 -0.9238795325112871 -6.881630898293937e-19
  outer loop
    vertex -4.595906680318838 -5.2401476076182 -44.49999999999998
    vertex -3.287499999999997 -4.698187815530578 -15.999999999999998
    vertex -4.595906680318821 -5.240147607618195 -15.999999999999998
  endloop
endfacet
facet normal -0.9238795325112871 -0.38268343236508895 -6.700636526637581e-18
  outer loop
    vertex -11.240147607618196 -1.4040933196811711 -15.999999999999998
    vertex -10.69818781553058 -2.712499999999995 -44.49999999999998
    vertex -10.69818781553058 -2.712499999999995 -15.999999999999998
  endloop
endfacet
facet normal -0.9238795325112871 -0.38268343236508895 -6.700636526637581e-18
  outer loop
    vertex -10.69818781553058 -2.712499999999995 -44.49999999999998
    vertex -11.240147607618196 -1.4040933196811711 -15.999999999999998
    vertex -11.240147607618196 -1.4040933196811711 -44.49999999999998
  endloop
endfacet
facet normal -0.9914448613738105 0.1305261922200524 -1.7107024253175103e-17
  outer loop
    vertex -11.240147607618194 1.4040933196811767 -15.999999999999998
    vertex -11.424999999999999 4.229949723821846e-15 -44.49999999999998
    vertex -11.424999999999999 2.8199664825478975e-15 -15.999999999999998
  endloop
endfacet
facet normal -0.9914448613738105 0.1305261922200524 -1.7107024253175103e-17
  outer loop
    vertex -11.424999999999999 4.229949723821846e-15 -44.49999999999998
    vertex -11.240147607618194 1.4040933196811767 -15.999999999999998
    vertex -11.240147607618194 1.4040933196811796 -44.49999999999998
  endloop
endfacet
facet normal 0.7933533402912354 0.6087614290087203 -2.8586111663122947e-17
  outer loop
    vertex -2.163945712062972 3.836054287937014 -44.49999999999998
    vertex -1.301812184469422 2.7125000000000035 -15.999999999999998
    vertex -1.3018121844694162 2.7124999999999924 -44.49999999999998
  endloop
endfacet
facet normal 0.7933533402912354 0.6087614290087203 -2.8586111663122947e-17
  outer loop
    vertex -1.301812184469422 2.7125000000000035 -15.999999999999998
    vertex -2.163945712062972 3.836054287937014 -44.49999999999998
    vertex -2.163945712062982 3.836054287937024 -15.999999999999998
  endloop
endfacet
facet normal 0.6087614290087193 -0.7933533402912363 1.0663607570770024e-18
  outer loop
    vertex -2.163945712062978 -3.83605428793702 -15.999999999999998
    vertex -3.2875000000000125 -4.698187815530587 -44.49999999999998
    vertex -2.1639457120629904 -3.8360542879370323 -44.49999999999998
  endloop
endfacet
facet normal 0.6087614290087193 -0.7933533402912363 1.0663607570770024e-18
  outer loop
    vertex -3.2875000000000125 -4.698187815530587 -44.49999999999998
    vertex -2.163945712062978 -3.83605428793702 -15.999999999999998
    vertex -3.287499999999997 -4.698187815530578 -15.999999999999998
  endloop
endfacet
facet normal -0.7933533402912359 -0.6087614290087199 -2.8446464584081254e-17
  outer loop
    vertex -10.69818781553058 -2.712499999999995 -15.999999999999998
    vertex -9.836054287937023 -3.836054287937015 -44.49999999999998
    vertex -9.836054287937026 -3.836054287937015 -15.999999999999998
  endloop
endfacet
facet normal -0.7933533402912359 -0.6087614290087199 -2.8446464584081254e-17
  outer loop
    vertex -9.836054287937023 -3.836054287937015 -44.49999999999998
    vertex -10.69818781553058 -2.712499999999995 -15.999999999999998
    vertex -10.69818781553058 -2.712499999999995 -44.49999999999998
  endloop
endfacet
facet normal 0.9914448613738105 0.13052619222005102 -1.6905175005075802e-17
  outer loop
    vertex -0.759852392381801 1.404093319681167 -44.49999999999998
    vertex -0.574999999999999 2.8199664825478975e-15 -15.999999999999998
    vertex -0.574999999999999 -8.459899447643692e-15 -44.49999999999998
  endloop
endfacet
facet normal 0.9914448613738105 0.13052619222005102 -1.6905175005075802e-17
  outer loop
    vertex -0.574999999999999 2.8199664825478975e-15 -15.999999999999998
    vertex -0.759852392381801 1.404093319681167 -44.49999999999998
    vertex -0.7598523923818038 1.404093319681178 -15.999999999999998
  endloop
endfacet
facet normal 0.1305261922200507 -0.9914448613738107 -1.1060673608589129e-17
  outer loop
    vertex -4.595906680318821 -5.240147607618195 -15.999999999999998
    vertex -6.00000000000001 -5.425 -44.49999999999998
    vertex -4.595906680318838 -5.2401476076182 -44.49999999999998
  endloop
endfacet
facet normal 0.1305261922200507 -0.9914448613738107 -1.1060673608589129e-17
  outer loop
    vertex -6.00000000000001 -5.425 -44.49999999999998
    vertex -4.595906680318821 -5.240147607618195 -15.999999999999998
    vertex -5.9999999999999964 -5.425000000000001 -15.999999999999998
  endloop
endfacet
facet normal 0.6087614290087211 0.793353340291235 -2.2685307186050865e-17
  outer loop
    vertex -3.2875000000000036 4.6981878155305825 -15.999999999999998
    vertex -2.163945712062972 3.836054287937014 -44.49999999999998
    vertex -3.287499999999991 4.6981878155305745 -44.49999999999998
  endloop
endfacet
facet normal 0.6087614290087211 0.793353340291235 -2.2685307186050865e-17
  outer loop
    vertex -2.163945712062972 3.836054287937014 -44.49999999999998
    vertex -3.2875000000000036 4.6981878155305825 -15.999999999999998
    vertex -2.163945712062982 3.836054287937024 -15.999999999999998
  endloop
endfacet
facet normal -0.6087614290087215 -0.7933533402912345 -9.568501691843995e-18
  outer loop
    vertex -8.712499999999997 -4.698187815530582 -15.999999999999998
    vertex -9.836054287937023 -3.836054287937015 -44.49999999999998
    vertex -8.712500000000007 -4.6981878155305745 -44.49999999999998
  endloop
endfacet
facet normal -0.6087614290087215 -0.7933533402912345 -9.568501691843995e-18
  outer loop
    vertex -9.836054287937023 -3.836054287937015 -44.49999999999998
    vertex -8.712499999999997 -4.698187815530582 -15.999999999999998
    vertex -9.836054287937026 -3.836054287937015 -15.999999999999998
  endloop
endfacet
facet normal -0.9238795325112865 0.3826834323650905 -7.149263168556628e-18
  outer loop
    vertex -10.698187815530579 2.7124999999999995 -15.999999999999998
    vertex -11.240147607618194 1.4040933196811796 -44.49999999999998
    vertex -11.240147607618194 1.4040933196811767 -15.999999999999998
  endloop
endfacet
facet normal -0.9238795325112865 0.3826834323650905 -7.149263168556628e-18
  outer loop
    vertex -11.240147607618194 1.4040933196811796 -44.49999999999998
    vertex -10.698187815530579 2.7124999999999995 -15.999999999999998
    vertex -10.698187815530575 2.712500000000005 -44.49999999999998
  endloop
endfacet
facet normal -0.1305261922200514 0.9914448613738105 -5.411187028176913e-17
  outer loop
    vertex -7.40409331968118 5.240147607618195 -15.999999999999998
    vertex -5.99999999999999 5.425 -44.49999999999998
    vertex -7.404093319681166 5.240147607618196 -44.49999999999998
  endloop
endfacet
facet normal -0.1305261922200514 0.9914448613738105 -5.411187028176913e-17
  outer loop
    vertex -5.99999999999999 5.425 -44.49999999999998
    vertex -7.40409331968118 5.240147607618195 -15.999999999999998
    vertex -6.000000000000006 5.425 -15.999999999999998
  endloop
endfacet
facet normal -0.9914448613738105 -0.1305261922200512 -1.965040964714871e-17
  outer loop
    vertex -11.424999999999999 2.8199664825478975e-15 -15.999999999999998
    vertex -11.240147607618196 -1.4040933196811711 -44.49999999999998
    vertex -11.240147607618196 -1.4040933196811711 -15.999999999999998
  endloop
endfacet
facet normal -0.9914448613738105 -0.1305261922200512 -1.965040964714871e-17
  outer loop
    vertex -11.240147607618196 -1.4040933196811711 -44.49999999999998
    vertex -11.424999999999999 2.8199664825478975e-15 -15.999999999999998
    vertex -11.424999999999999 4.229949723821846e-15 -44.49999999999998
  endloop
endfacet
facet normal -0.13052619222005263 -0.9914448613738103 -3.42193961265465e-17
  outer loop
    vertex -5.9999999999999964 -5.425000000000001 -15.999999999999998
    vertex -7.404093319681184 -5.2401476076181925 -44.49999999999998
    vertex -6.00000000000001 -5.425 -44.49999999999998
  endloop
endfacet
facet normal -0.13052619222005263 -0.9914448613738103 -3.42193961265465e-17
  outer loop
    vertex -7.404093319681184 -5.2401476076181925 -44.49999999999998
    vertex -5.9999999999999964 -5.425000000000001 -15.999999999999998
    vertex -7.404093319681172 -5.240147607618196 -15.999999999999998
  endloop
endfacet
facet normal 0.3826834323650901 0.9238795325112867 -1.1063579170063623e-17
  outer loop
    vertex -4.595906680318829 5.240147607618198 -15.999999999999998
    vertex -3.287499999999991 4.6981878155305745 -44.49999999999998
    vertex -4.595906680318815 5.2401476076181925 -44.49999999999998
  endloop
endfacet
facet normal 0.3826834323650901 0.9238795325112867 -1.1063579170063623e-17
  outer loop
    vertex -3.287499999999991 4.6981878155305745 -44.49999999999998
    vertex -4.595906680318829 5.240147607618198 -15.999999999999998
    vertex -3.2875000000000036 4.6981878155305825 -15.999999999999998
  endloop
endfacet
facet normal -0.3826834323650905 -0.9238795325112865 -3.885405004235373e-17
  outer loop
    vertex -7.404093319681172 -5.240147607618196 -15.999999999999998
    vertex -8.712500000000007 -4.6981878155305745 -44.49999999999998
    vertex -7.404093319681184 -5.2401476076181925 -44.49999999999998
  endloop
endfacet
facet normal -0.3826834323650905 -0.9238795325112865 -3.885405004235373e-17
  outer loop
    vertex -8.712500000000007 -4.6981878155305745 -44.49999999999998
    vertex -7.404093319681172 -5.240147607618196 -15.999999999999998
    vertex -8.712499999999997 -4.698187815530582 -15.999999999999998
  endloop
endfacet
facet normal 0.9914448613738105 -0.13052619222005235 -5.41197836035624e-18
  outer loop
    vertex -0.574999999999999 -8.459899447643692e-15 -44.49999999999998
    vertex -0.7598523923818038 -1.4040933196811731 -15.999999999999998
    vertex -0.7598523923818067 -1.4040933196811825 -44.49999999999998
  endloop
endfacet
facet normal 0.9914448613738105 -0.13052619222005235 -5.41197836035624e-18
  outer loop
    vertex -0.7598523923818038 -1.4040933196811731 -15.999999999999998
    vertex -0.574999999999999 -8.459899447643692e-15 -44.49999999999998
    vertex -0.574999999999999 2.8199664825478975e-15 -15.999999999999998
  endloop
endfacet
facet normal -0.38268343236508934 0.9238795325112871 -6.424068086782806e-17
  outer loop
    vertex -8.712500000000002 4.698187815530578 -15.999999999999998
    vertex -7.404093319681166 5.240147607618196 -44.49999999999998
    vertex -8.712499999999993 4.6981878155305825 -44.49999999999998
  endloop
endfacet
facet normal -0.38268343236508934 0.9238795325112871 -6.424068086782806e-17
  outer loop
    vertex -7.404093319681166 5.240147607618196 -44.49999999999998
    vertex -8.712500000000002 4.698187815530578 -15.999999999999998
    vertex -7.40409331968118 5.240147607618195 -15.999999999999998
  endloop
endfacet
facet normal 0.9238795325112868 0.38268343236508956 -3.0645810880792887e-17
  outer loop
    vertex -1.3018121844694162 2.7124999999999924 -44.49999999999998
    vertex -0.7598523923818038 1.404093319681178 -15.999999999999998
    vertex -0.759852392381801 1.404093319681167 -44.49999999999998
  endloop
endfacet
facet normal 0.9238795325112868 0.38268343236508956 -3.0645810880792887e-17
  outer loop
    vertex -0.7598523923818038 1.404093319681178 -15.999999999999998
    vertex -1.3018121844694162 2.7124999999999924 -44.49999999999998
    vertex -1.301812184469422 2.7125000000000035 -15.999999999999998
  endloop
endfacet
facet normal 0.9238795325112865 -0.38268343236509056 -6.136960979640099e-17
  outer loop
    vertex -0.7598523923818067 -1.4040933196811825 -44.49999999999998
    vertex -1.301812184469419 -2.7124999999999995 -15.999999999999998
    vertex -1.301812184469429 -2.7125000000000163 -44.49999999999998
  endloop
endfacet
facet normal 0.9238795325112865 -0.38268343236509056 -6.136960979640099e-17
  outer loop
    vertex -1.301812184469419 -2.7124999999999995 -15.999999999999998
    vertex -0.7598523923818067 -1.4040933196811825 -44.49999999999998
    vertex -0.7598523923818038 -1.4040933196811731 -15.999999999999998
  endloop
endfacet
facet normal 0.13052619222005155 0.9914448613738105 -2.063811856406944e-17
  outer loop
    vertex -6.000000000000006 5.425 -15.999999999999998
    vertex -4.595906680318815 5.2401476076181925 -44.49999999999998
    vertex -5.99999999999999 5.425 -44.49999999999998
  endloop
endfacet
facet normal 0.13052619222005155 0.9914448613738105 -2.063811856406944e-17
  outer loop
    vertex -4.595906680318815 5.2401476076181925 -44.49999999999998
    vertex -6.000000000000006 5.425 -15.999999999999998
    vertex -4.595906680318829 5.240147607618198 -15.999999999999998
  endloop
endfacet
facet normal -0.7933533402912352 0.6087614290087208 -2.14693542252965e-17
  outer loop
    vertex -9.83605428793702 3.8360542879370185 -15.999999999999998
    vertex -10.698187815530575 2.712500000000005 -44.49999999999998
    vertex -10.698187815530579 2.7124999999999995 -15.999999999999998
  endloop
endfacet
facet normal -0.7933533402912352 0.6087614290087208 -2.14693542252965e-17
  outer loop
    vertex -10.698187815530575 2.712500000000005 -44.49999999999998
    vertex -9.83605428793702 3.8360542879370185 -15.999999999999998
    vertex -9.836054287937014 3.836054287937024 -44.49999999999998
  endloop
endfacet
facet normal -0.6087614290087204 0.7933533402912353 -4.6038702892808016e-17
  outer loop
    vertex -9.83605428793702 3.8360542879370185 -15.999999999999998
    vertex -8.712499999999993 4.6981878155305825 -44.49999999999998
    vertex -9.836054287937014 3.836054287937024 -44.49999999999998
  endloop
endfacet
facet normal -0.6087614290087204 0.7933533402912353 -4.6038702892808016e-17
  outer loop
    vertex -8.712499999999993 4.6981878155305825 -44.49999999999998
    vertex -9.83605428793702 3.8360542879370185 -15.999999999999998
    vertex -8.712500000000002 4.698187815530578 -15.999999999999998
  endloop
endfacet
facet normal 0.0 0.0 -1.0
  outer loop
    vertex -8.34237012875099 0.6276361843736127 -16.000000000000025
    vertex -8.34237012875099 -0.6276361843736127 -16.000000000000025
    vertex -8.424999999999999 0.0 -16.000000000000025
  endloop
endfacet
facet normal 0.0 0.0 -1.0
  outer loop
    vertex -8.34237012875099 -0.6276361843736127 -16.000000000000025
    vertex -8.34237012875099 0.6276361843736127 -16.000000000000025
    vertex -8.100111604177263 1.2124999999999992 -16.000000000000025
  endloop
endfacet
facet normal 0.0 0.0 -1.0
  outer loop
    vertex -8.34237012875099 -0.6276361843736127 -16.000000000000025
    vertex -8.100111604177263 1.2124999999999992 -16.000000000000025
    vertex -8.100111604177263 -1.2124999999999992 -16.000000000000025
  endloop
endfacet
facet normal 0.0 0.0 -1.0
  outer loop
    vertex -8.100111604177263 -1.2124999999999992 -16.000000000000025
    vertex -8.100111604177263 1.2124999999999992 -16.000000000000025
    vertex -7.714733944377376 1.7147339443773775 -16.000000000000025
  endloop
endfacet
facet normal 0.0 0.0 -1.0
  outer loop
    vertex -8.100111604177263 -1.2124999999999992 -16.000000000000025
    vertex -7.714733944377376 1.7147339443773775 -16.000000000000025
    vertex -7.714733944377376 -1.7147339443773768 -16.000000000000025
  endloop
endfacet
facet normal 0.0 0.0 -1.0
  outer loop
    vertex -7.714733944377376 -1.7147339443773768 -16.000000000000025
    vertex -7.714733944377376 1.7147339443773775 -16.000000000000025
    vertex -7.212499999999998 2.100111604177264 -16.000000000000025
  endloop
endfacet
facet normal 0.0 0.0 -1.0
  outer loop
    vertex -7.714733944377376 -1.7147339443773768 -16.000000000000025
    vertex -7.212499999999998 2.100111604177264 -16.000000000000025
    vertex -7.212499999999998 -2.100111604177264 -16.000000000000025
  endloop
endfacet
facet normal 0.0 0.0 -1.0
  outer loop
    vertex -7.212499999999998 -2.100111604177264 -16.000000000000025
    vertex -7.212499999999998 2.100111604177264 -16.000000000000025
    vertex -6.627636184373607 2.3423701287509915 -16.000000000000025
  endloop
endfacet
facet normal 0.0 0.0 -1.0
  outer loop
    vertex -7.212499999999998 -2.100111604177264 -16.000000000000025
    vertex -6.627636184373607 2.3423701287509915 -16.000000000000025
    vertex -6.627636184373611 -2.34237012875099 -16.000000000000025
  endloop
endfacet
facet normal 0.0 0.0 -1.0
  outer loop
    vertex -6.627636184373611 -2.34237012875099 -16.000000000000025
    vertex -6.627636184373607 2.3423701287509915 -16.000000000000025
    vertex -5.999999999999999 -2.425 -16.000000000000025
  endloop
endfacet
facet normal 0.0 0.0 -1.0
  outer loop
    vertex -5.999999999999999 -2.425 -16.000000000000025
    vertex -6.627636184373607 2.3423701287509915 -16.000000000000025
    vertex -5.999999999999995 2.425 -16.000000000000025
  endloop
endfacet
facet normal 0.0 0.0 -1.0
  outer loop
    vertex -5.999999999999999 -2.425 -16.000000000000025
    vertex -5.999999999999995 2.425 -16.000000000000025
    vertex -5.372363815626385 -2.34237012875099 -16.000000000000025
  endloop
endfacet
facet normal 0.0 0.0 -1.0
  outer loop
    vertex -5.372363815626385 -2.34237012875099 -16.000000000000025
    vertex -5.999999999999995 2.425 -16.000000000000025
    vertex -5.372363815626383 2.342370128750989 -16.000000000000025
  endloop
endfacet
facet normal 0.0 0.0 -1.0
  outer loop
    vertex -5.372363815626385 -2.34237012875099 -16.000000000000025
    vertex -5.372363815626383 2.342370128750989 -16.000000000000025
    vertex -4.787499999999998 -2.100111604177263 -16.000000000000025
  endloop
endfacet
facet normal 0.0 0.0 -1.0
  outer loop
    vertex -4.787499999999998 -2.100111604177263 -16.000000000000025
    vertex -5.372363815626383 2.342370128750989 -16.000000000000025
    vertex -4.787499999999997 2.1001116041772625 -16.000000000000025
  endloop
endfacet
facet normal 0.0 0.0 -1.0
  outer loop
    vertex -4.787499999999998 -2.100111604177263 -16.000000000000025
    vertex -4.787499999999997 2.1001116041772625 -16.000000000000025
    vertex -4.28526605562262 -1.7147339443773761 -16.000000000000025
  endloop
endfacet
facet normal 0.0 0.0 -1.0
  outer loop
    vertex -4.28526605562262 -1.7147339443773761 -16.000000000000025
    vertex -4.787499999999997 2.1001116041772625 -16.000000000000025
    vertex -4.28526605562262 1.7147339443773761 -16.000000000000025
  endloop
endfacet
facet normal 0.0 0.0 -1.0
  outer loop
    vertex -4.28526605562262 -1.7147339443773761 -16.000000000000025
    vertex -4.28526605562262 1.7147339443773761 -16.000000000000025
    vertex -3.8998883958227353 1.2124999999999992 -16.000000000000025
  endloop
endfacet
facet normal 0.0 0.0 -1.0
  outer loop
    vertex -4.28526605562262 -1.7147339443773761 -16.000000000000025
    vertex -3.8998883958227353 1.2124999999999992 -16.000000000000025
    vertex -3.899888395822734 -1.2124999999999977 -16.000000000000025
  endloop
endfacet
facet normal 0.0 0.0 -1.0
  outer loop
    vertex -3.899888395822734 -1.2124999999999977 -16.000000000000025
    vertex -3.8998883958227353 1.2124999999999992 -16.000000000000025
    vertex -3.6576298712490085 0.6276361843736127 -16.000000000000025
  endloop
endfacet
facet normal 0.0 0.0 -1.0
  outer loop
    vertex -3.899888395822734 -1.2124999999999977 -16.000000000000025
    vertex -3.6576298712490085 0.6276361843736127 -16.000000000000025
    vertex -3.6576298712490085 -0.6276361843736112 -16.000000000000025
  endloop
endfacet
facet normal 0.0 0.0 -1.0
  outer loop
    vertex -3.6576298712490085 -0.6276361843736112 -16.000000000000025
    vertex -3.6576298712490085 0.6276361843736127 -16.000000000000025
    vertex -3.5749999999999993 0.0 -16.000000000000025
  endloop
endfacet
facet normal 0.9914448613738105 -0.13052619222005218 2.2407035009264097e-17
  outer loop
    vertex -8.424999999999999 2.8199664825478975e-15 -44.49999999999998
    vertex -8.34237012875099 0.6276361843736127 -16.000000000000025
    vertex -8.424999999999999 0.0 -16.000000000000025
  endloop
endfacet
facet normal 0.9914448613738105 -0.13052619222005218 2.2407035009264097e-17
  outer loop
    vertex -8.34237012875099 0.6276361843736127 -16.000000000000025
    vertex -8.424999999999999 2.8199664825478975e-15 -44.49999999999998
    vertex -8.34237012875099 0.627636184373614 -44.49999999999998
  endloop
endfacet
facet normal 0.13052619222005166 0.9914448613738105 -1.0653331504213267e-17
  outer loop
    vertex -6.627636184373611 -2.34237012875099 -16.000000000000025
    vertex -5.999999999999999 -2.425 -44.49999999999998
    vertex -6.627636184373611 -2.34237012875099 -44.49999999999998
  endloop
endfacet
facet normal 0.13052619222005166 0.9914448613738105 -1.0653331504213267e-17
  outer loop
    vertex -5.999999999999999 -2.425 -44.49999999999998
    vertex -6.627636184373611 -2.34237012875099 -16.000000000000025
    vertex -5.999999999999999 -2.425 -16.000000000000025
  endloop
endfacet
facet normal 0.7933533402912353 0.6087614290087204 1.2663393779827043e-17
  outer loop
    vertex -7.714733944377379 -1.7147339443773733 -44.49999999999998
    vertex -8.100111604177263 -1.2124999999999992 -16.000000000000025
    vertex -7.714733944377376 -1.7147339443773768 -16.000000000000025
  endloop
endfacet
facet normal 0.7933533402912353 0.6087614290087204 1.2663393779827043e-17
  outer loop
    vertex -8.100111604177263 -1.2124999999999992 -16.000000000000025
    vertex -7.714733944377379 -1.7147339443773733 -44.49999999999998
    vertex -8.100111604177265 -1.2124999999999964 -44.49999999999998
  endloop
endfacet
facet normal 0.6087614290087204 -0.7933533402912354 2.967244054462105e-17
  outer loop
    vertex -7.212499999999998 2.100111604177264 -16.000000000000025
    vertex -7.714733944377375 1.7147339443773775 -44.49999999999998
    vertex -7.212499999999998 2.1001116041772625 -44.49999999999998
  endloop
endfacet
facet normal 0.6087614290087204 -0.7933533402912354 2.967244054462105e-17
  outer loop
    vertex -7.714733944377375 1.7147339443773775 -44.49999999999998
    vertex -7.212499999999998 2.100111604177264 -16.000000000000025
    vertex -7.714733944377376 1.7147339443773775 -16.000000000000025
  endloop
endfacet
facet normal 0.6087614290087219 0.7933533402912344 3.281708421417148e-17
  outer loop
    vertex -7.714733944377376 -1.7147339443773768 -16.000000000000025
    vertex -7.212499999999998 -2.100111604177263 -44.49999999999998
    vertex -7.714733944377379 -1.7147339443773733 -44.49999999999998
  endloop
endfacet
facet normal 0.6087614290087219 0.7933533402912344 3.281708421417148e-17
  outer loop
    vertex -7.212499999999998 -2.100111604177263 -44.49999999999998
    vertex -7.714733944377376 -1.7147339443773768 -16.000000000000025
    vertex -7.212499999999998 -2.100111604177264 -16.000000000000025
  endloop
endfacet
facet normal 0.9238795325112871 0.38268343236508917 7.829560726924647e-18
  outer loop
    vertex -8.100111604177265 -1.2124999999999964 -44.49999999999998
    vertex -8.34237012875099 -0.6276361843736127 -16.000000000000025
    vertex -8.100111604177263 -1.2124999999999992 -16.000000000000025
  endloop
endfacet
facet normal 0.9238795325112871 0.38268343236508917 7.829560726924647e-18
  outer loop
    vertex -8.34237012875099 -0.6276361843736127 -16.000000000000025
    vertex -8.100111604177265 -1.2124999999999964 -44.49999999999998
    vertex -8.34237012875099 -0.6276361843736098 -44.49999999999998
  endloop
endfacet
facet normal -0.9238795325112867 -0.38268343236508984 2.0234027611051712e-17
  outer loop
    vertex -3.8998883958227353 1.2124999999999992 -16.000000000000025
    vertex -3.6576298712490085 0.6276361843736127 -44.49999999999998
    vertex -3.6576298712490085 0.6276361843736127 -16.000000000000025
  endloop
endfacet
facet normal -0.9238795325112867 -0.38268343236508984 2.0234027611051712e-17
  outer loop
    vertex -3.6576298712490085 0.6276361843736127 -44.49999999999998
    vertex -3.8998883958227353 1.2124999999999992 -16.000000000000025
    vertex -3.8998883958227366 1.2125000000000006 -44.49999999999998
  endloop
endfacet
facet normal 0.1305261922200507 -0.9914448613738107 -1.044009153607116e-17
  outer loop
    vertex -5.999999999999995 2.425 -16.000000000000025
    vertex -6.627636184373613 2.34237012875099 -44.49999999999998
    vertex -6.0 2.425 -44.49999999999998
  endloop
endfacet
facet normal 0.1305261922200507 -0.9914448613738107 -1.044009153607116e-17
  outer loop
    vertex -6.627636184373613 2.34237012875099 -44.49999999999998
    vertex -5.999999999999995 2.425 -16.000000000000025
    vertex -6.627636184373607 2.3423701287509915 -16.000000000000025
  endloop
endfacet
facet normal -0.38268343236509006 0.9238795325112867 1.6173807111338285e-17
  outer loop
    vertex -5.372363815626385 -2.34237012875099 -16.000000000000025
    vertex -4.7875 -2.100111604177263 -44.49999999999998
    vertex -5.372363815626386 -2.34237012875099 -44.49999999999998
  endloop
endfacet
facet normal -0.38268343236509006 0.9238795325112867 1.6173807111338285e-17
  outer loop
    vertex -4.7875 -2.100111604177263 -44.49999999999998
    vertex -5.372363815626385 -2.34237012875099 -16.000000000000025
    vertex -4.787499999999998 -2.100111604177263 -16.000000000000025
  endloop
endfacet
facet normal -0.793353340291235 -0.6087614290087211 3.4456691390543133e-17
  outer loop
    vertex -4.28526605562262 1.7147339443773761 -16.000000000000025
    vertex -3.8998883958227366 1.2125000000000006 -44.49999999999998
    vertex -3.8998883958227353 1.2124999999999992 -16.000000000000025
  endloop
endfacet
facet normal -0.793353340291235 -0.6087614290087211 3.4456691390543133e-17
  outer loop
    vertex -3.8998883958227366 1.2125000000000006 -44.49999999999998
    vertex -4.28526605562262 1.7147339443773761 -16.000000000000025
    vertex -4.285266055622623 1.7147339443773775 -44.49999999999998
  endloop
endfacet
facet normal -0.7933533402912352 0.6087614290087209 3.4317148145032153e-17
  outer loop
    vertex -4.28526605562262 -1.7147339443773761 -16.000000000000025
    vertex -3.8998883958227366 -1.2125000000000006 -44.49999999999998
    vertex -4.285266055622623 -1.7147339443773775 -44.49999999999998
  endloop
endfacet
facet normal -0.7933533402912352 0.6087614290087209 3.4317148145032153e-17
  outer loop
    vertex -3.8998883958227366 -1.2125000000000006 -44.49999999999998
    vertex -4.28526605562262 -1.7147339443773761 -16.000000000000025
    vertex -3.899888395822734 -1.2124999999999977 -16.000000000000025
  endloop
endfacet
facet normal -0.9238795325112868 0.3826834323650896 1.581492322740994e-17
  outer loop
    vertex -3.899888395822734 -1.2124999999999977 -16.000000000000025
    vertex -3.6576298712490085 -0.6276361843736127 -44.49999999999998
    vertex -3.8998883958227366 -1.2125000000000006 -44.49999999999998
  endloop
endfacet
facet normal -0.9238795325112868 0.3826834323650896 1.581492322740994e-17
  outer loop
    vertex -3.6576298712490085 -0.6276361843736127 -44.49999999999998
    vertex -3.899888395822734 -1.2124999999999977 -16.000000000000025
    vertex -3.6576298712490085 -0.6276361843736112 -16.000000000000025
  endloop
endfacet
facet normal -0.130526192220052 0.9914448613738105 -1.2031644185270945e-17
  outer loop
    vertex -5.999999999999999 -2.425 -16.000000000000025
    vertex -5.372363815626386 -2.34237012875099 -44.49999999999998
    vertex -5.999999999999999 -2.425 -44.49999999999998
  endloop
endfacet
facet normal -0.130526192220052 0.9914448613738105 -1.2031644185270945e-17
  outer loop
    vertex -5.372363815626386 -2.34237012875099 -44.49999999999998
    vertex -5.999999999999999 -2.425 -16.000000000000025
    vertex -5.372363815626385 -2.34237012875099 -16.000000000000025
  endloop
endfacet
facet normal 0.9238795325112867 -0.3826834323650899 2.9796433017770334e-17
  outer loop
    vertex -8.34237012875099 0.627636184373614 -44.49999999999998
    vertex -8.100111604177263 1.2124999999999992 -16.000000000000025
    vertex -8.34237012875099 0.6276361843736127 -16.000000000000025
  endloop
endfacet
facet normal 0.9238795325112867 -0.3826834323650899 2.9796433017770334e-17
  outer loop
    vertex -8.100111604177263 1.2124999999999992 -16.000000000000025
    vertex -8.34237012875099 0.627636184373614 -44.49999999999998
    vertex -8.100111604177261 1.2125000000000006 -44.49999999999998
  endloop
endfacet
facet normal 0.3826834323650897 0.9238795325112868 6.163282998673376e-18
  outer loop
    vertex -7.212499999999998 -2.100111604177264 -16.000000000000025
    vertex -6.627636184373611 -2.34237012875099 -44.49999999999998
    vertex -7.212499999999998 -2.100111604177263 -44.49999999999998
  endloop
endfacet
facet normal 0.3826834323650897 0.9238795325112868 6.163282998673376e-18
  outer loop
    vertex -6.627636184373611 -2.34237012875099 -44.49999999999998
    vertex -7.212499999999998 -2.100111604177264 -16.000000000000025
    vertex -6.627636184373611 -2.34237012875099 -16.000000000000025
  endloop
endfacet
facet normal -0.3826834323650897 -0.9238795325112868 7.792090517435955e-18
  outer loop
    vertex -4.787499999999997 2.1001116041772625 -16.000000000000025
    vertex -5.372363815626388 2.34237012875099 -44.49999999999998
    vertex -4.7875 2.100111604177264 -44.49999999999998
  endloop
endfacet
facet normal -0.3826834323650897 -0.9238795325112868 7.792090517435955e-18
  outer loop
    vertex -5.372363815626388 2.34237012875099 -44.49999999999998
    vertex -4.787499999999997 2.1001116041772625 -16.000000000000025
    vertex -5.372363815626383 2.342370128750989 -16.000000000000025
  endloop
endfacet
facet normal 0.38268343236509034 -0.9238795325112865 1.2670503150658704e-19
  outer loop
    vertex -6.627636184373607 2.3423701287509915 -16.000000000000025
    vertex -7.212499999999998 2.1001116041772625 -44.49999999999998
    vertex -6.627636184373613 2.34237012875099 -44.49999999999998
  endloop
endfacet
facet normal 0.38268343236509034 -0.9238795325112865 1.2670503150658704e-19
  outer loop
    vertex -7.212499999999998 2.1001116041772625 -44.49999999999998
    vertex -6.627636184373607 2.3423701287509915 -16.000000000000025
    vertex -7.212499999999998 2.100111604177264 -16.000000000000025
  endloop
endfacet
facet normal -0.9914448613738105 0.1305261922200518 -1.2309584865491058e-17
  outer loop
    vertex -3.6576298712490085 -0.6276361843736112 -16.000000000000025
    vertex -3.5749999999999993 0.0 -44.49999999999998
    vertex -3.6576298712490085 -0.6276361843736127 -44.49999999999998
  endloop
endfacet
facet normal -0.9914448613738105 0.1305261922200518 -1.2309584865491058e-17
  outer loop
    vertex -3.5749999999999993 0.0 -44.49999999999998
    vertex -3.6576298712490085 -0.6276361843736112 -16.000000000000025
    vertex -3.5749999999999993 0.0 -16.000000000000025
  endloop
endfacet
facet normal -0.9914448613738105 -0.1305261922200518 -8.168951462296598e-18
  outer loop
    vertex -3.6576298712490085 0.6276361843736127 -16.000000000000025
    vertex -3.5749999999999993 0.0 -44.49999999999998
    vertex -3.5749999999999993 0.0 -16.000000000000025
  endloop
endfacet
facet normal -0.9914448613738105 -0.1305261922200518 -8.168951462296598e-18
  outer loop
    vertex -3.5749999999999993 0.0 -44.49999999999998
    vertex -3.6576298712490085 0.6276361843736127 -16.000000000000025
    vertex -3.6576298712490085 0.6276361843736127 -44.49999999999998
  endloop
endfacet
facet normal -0.13052619222005263 -0.9914448613738103 -1.8694933294193888e-18
  outer loop
    vertex -5.372363815626383 2.342370128750989 -16.000000000000025
    vertex -6.0 2.425 -44.49999999999998
    vertex -5.372363815626388 2.34237012875099 -44.49999999999998
  endloop
endfacet
facet normal -0.13052619222005263 -0.9914448613738103 -1.8694933294193888e-18
  outer loop
    vertex -6.0 2.425 -44.49999999999998
    vertex -5.372363815626383 2.342370128750989 -16.000000000000025
    vertex -5.999999999999995 2.425 -16.000000000000025
  endloop
endfacet
facet normal 0.9914448613738107 0.13052619222005066 2.2909606377668755e-17
  outer loop
    vertex -8.34237012875099 -0.6276361843736098 -44.49999999999998
    vertex -8.424999999999999 0.0 -16.000000000000025
    vertex -8.34237012875099 -0.6276361843736127 -16.000000000000025
  endloop
endfacet
facet normal 0.9914448613738107 0.13052619222005066 2.2909606377668755e-17
  outer loop
    vertex -8.424999999999999 0.0 -16.000000000000025
    vertex -8.34237012875099 -0.6276361843736098 -44.49999999999998
    vertex -8.424999999999999 2.8199664825478975e-15 -44.49999999999998
  endloop
endfacet
facet normal 0.7933533402912352 -0.6087614290087209 2.972227000133704e-17
  outer loop
    vertex -8.100111604177261 1.2125000000000006 -44.49999999999998
    vertex -7.714733944377376 1.7147339443773775 -16.000000000000025
    vertex -8.100111604177263 1.2124999999999992 -16.000000000000025
  endloop
endfacet
facet normal 0.7933533402912352 -0.6087614290087209 2.972227000133704e-17
  outer loop
    vertex -7.714733944377376 1.7147339443773775 -16.000000000000025
    vertex -8.100111604177261 1.2125000000000006 -44.49999999999998
    vertex -7.714733944377375 1.7147339443773775 -44.49999999999998
  endloop
endfacet
facet normal -0.6087614290087211 0.793353340291235 3.93456515873641e-17
  outer loop
    vertex -4.787499999999998 -2.100111604177263 -16.000000000000025
    vertex -4.285266055622623 -1.7147339443773775 -44.49999999999998
    vertex -4.7875 -2.100111604177263 -44.49999999999998
  endloop
endfacet
facet normal -0.6087614290087211 0.793353340291235 3.93456515873641e-17
  outer loop
    vertex -4.285266055622623 -1.7147339443773775 -44.49999999999998
    vertex -4.787499999999998 -2.100111604177263 -16.000000000000025
    vertex -4.28526605562262 -1.7147339443773761 -16.000000000000025
  endloop
endfacet
facet normal -0.6087614290087217 -0.7933533402912345 1.9665366950204452e-17
  outer loop
    vertex -4.28526605562262 1.7147339443773761 -16.000000000000025
    vertex -4.7875 2.100111604177264 -44.49999999999998
    vertex -4.285266055622623 1.7147339443773775 -44.49999999999998
  endloop
endfacet
facet normal -0.6087614290087217 -0.7933533402912345 1.9665366950204452e-17
  outer loop
    vertex -4.7875 2.100111604177264 -44.49999999999998
    vertex -4.28526605562262 1.7147339443773761 -16.000000000000025
    vertex -4.787499999999997 2.1001116041772625 -16.000000000000025
  endloop
endfacet
endsolid cap
